# MagicaVoxel @ Ephtracy

# group
o 

# material
mtllib brick_three.mtl
usemtl palette

# normals
vn -1 0 0
vn 1 0 0
vn 0 0 1
vn 0 0 -1
vn 0 -1 0
vn 0 1 0

# texcoords
vt 0.939453 0.5
vt 0.970703 0.5
vt 0.974609 0.5

# verts
v 0 0.4 0
v 0 0.4 -0.5
v 0 0.8 0
v 0 0.8 -0.5
v 0.2 0.8 0
v 0.2 0.8 -0.1
v 0.2 0.8 -0.2
v 0.2 0.8 -0.3
v 0.2 0.8 -0.4
v 0.2 0.8 -0.5
v 0.2 0.9 0
v 0.2 0.9 -0.5
v 0.4 0.9 0
v 0.4 0.9 -0.5
v 0.4 1.2 0
v 0.4 1.2 -0.5
v 0.5 1.2 0
v 0.5 1.2 -0.5
v 0.5 1.3 0
v 0.5 1.3 -0.5
v 1.4 1.1 0
v 1.4 1.1 -0.5
v 1.4 1.3 0
v 1.4 1.3 -0.5
v 1.5 0.8 0
v 1.5 0.8 -0.1
v 1.5 0.8 -0.2
v 1.5 0.8 -0.3
v 1.5 0.8 -0.4
v 1.5 0.8 -0.5
v 1.5 1.1 0
v 1.5 1.1 -0.5
v 1.9 0.4 0
v 1.9 0.4 -0.5
v 1.9 0.8 0
v 1.9 0.8 -0.5
v 0 0.4 0
v 0 0.8 0
v 0.2 0.8 0
v 0.2 0.9 0
v 0.4 0.9 0
v 0.4 1.2 0
v 0.5 0.9 0
v 0.5 1.2 0
v 0.5 1.3 0
v 0.9 0.4 0
v 0.9 0.8 0
v 1 0.4 0
v 1 0.8 0
v 1.4 0.9 0
v 1.4 1.1 0
v 1.4 1.3 0
v 1.5 0.8 0
v 1.5 1.1 0
v 1.9 0.4 0
v 1.9 0.8 0
v 0 0.4 -0.5
v 0 0.8 -0.5
v 0.2 0.8 -0.5
v 0.2 0.9 -0.5
v 0.4 0.9 -0.5
v 0.4 1.2 -0.5
v 0.5 0.9 -0.5
v 0.5 1.2 -0.5
v 0.5 1.3 -0.5
v 0.9 0.4 -0.5
v 0.9 0.8 -0.5
v 1 0.4 -0.5
v 1 0.8 -0.5
v 1.4 0.9 -0.5
v 1.4 1.1 -0.5
v 1.4 1.3 -0.5
v 1.5 0.8 -0.5
v 1.5 1.1 -0.5
v 1.9 0.4 -0.5
v 1.9 0.8 -0.5
v 0 0.4 0
v 0.9 0.4 0
v 1 0.4 0
v 1.9 0.4 0
v 0.1 0.4 -0.1
v 0.2 0.4 -0.1
v 0.3 0.4 -0.1
v 0.4 0.4 -0.1
v 0.5 0.4 -0.1
v 0.6 0.4 -0.1
v 0.7 0.4 -0.1
v 0.8 0.4 -0.1
v 1.1 0.4 -0.1
v 1.2 0.4 -0.1
v 1.3 0.4 -0.1
v 1.4 0.4 -0.1
v 1.5 0.4 -0.1
v 1.6 0.4 -0.1
v 1.7 0.4 -0.1
v 1.8 0.4 -0.1
v 0.1 0.4 -0.2
v 0.2 0.4 -0.2
v 0.3 0.4 -0.2
v 0.4 0.4 -0.2
v 0.5 0.4 -0.2
v 0.6 0.4 -0.2
v 0.7 0.4 -0.2
v 0.8 0.4 -0.2
v 1.1 0.4 -0.2
v 1.2 0.4 -0.2
v 1.3 0.4 -0.2
v 1.4 0.4 -0.2
v 1.5 0.4 -0.2
v 1.6 0.4 -0.2
v 1.7 0.4 -0.2
v 1.8 0.4 -0.2
v 0.1 0.4 -0.3
v 0.2 0.4 -0.3
v 0.3 0.4 -0.3
v 0.4 0.4 -0.3
v 0.5 0.4 -0.3
v 0.6 0.4 -0.3
v 0.7 0.4 -0.3
v 0.8 0.4 -0.3
v 1.1 0.4 -0.3
v 1.2 0.4 -0.3
v 1.3 0.4 -0.3
v 1.4 0.4 -0.3
v 1.5 0.4 -0.3
v 1.6 0.4 -0.3
v 1.7 0.4 -0.3
v 1.8 0.4 -0.3
v 0.1 0.4 -0.4
v 0.2 0.4 -0.4
v 0.3 0.4 -0.4
v 0.4 0.4 -0.4
v 0.5 0.4 -0.4
v 0.6 0.4 -0.4
v 0.7 0.4 -0.4
v 0.8 0.4 -0.4
v 1.1 0.4 -0.4
v 1.2 0.4 -0.4
v 1.3 0.4 -0.4
v 1.4 0.4 -0.4
v 1.5 0.4 -0.4
v 1.6 0.4 -0.4
v 1.7 0.4 -0.4
v 1.8 0.4 -0.4
v 0 0.4 -0.5
v 0.9 0.4 -0.5
v 1 0.4 -0.5
v 1.9 0.4 -0.5
v 0 0.8 0
v 0.2 0.8 0
v 1.5 0.8 0
v 1.9 0.8 0
v 0.1 0.8 -0.1
v 0.2 0.8 -0.1
v 1.5 0.8 -0.1
v 1.6 0.8 -0.1
v 1.7 0.8 -0.1
v 1.8 0.8 -0.1
v 0.1 0.8 -0.2
v 0.2 0.8 -0.2
v 1.5 0.8 -0.2
v 1.6 0.8 -0.2
v 1.7 0.8 -0.2
v 1.8 0.8 -0.2
v 0.1 0.8 -0.3
v 0.2 0.8 -0.3
v 1.5 0.8 -0.3
v 1.6 0.8 -0.3
v 1.7 0.8 -0.3
v 1.8 0.8 -0.3
v 0.1 0.8 -0.4
v 0.2 0.8 -0.4
v 1.5 0.8 -0.4
v 1.6 0.8 -0.4
v 1.7 0.8 -0.4
v 1.8 0.8 -0.4
v 0 0.8 -0.5
v 0.2 0.8 -0.5
v 1.5 0.8 -0.5
v 1.9 0.8 -0.5
v 0.2 0.9 0
v 0.4 0.9 0
v 0.2 0.9 -0.5
v 0.4 0.9 -0.5
v 1.4 1.1 0
v 1.5 1.1 0
v 1.4 1.1 -0.5
v 1.5 1.1 -0.5
v 0.4 1.2 0
v 0.5 1.2 0
v 0.4 1.2 -0.5
v 0.5 1.2 -0.5
v 0.5 1.3 0
v 1.4 1.3 0
v 0.6 1.3 -0.1
v 0.7 1.3 -0.1
v 0.8 1.3 -0.1
v 0.9 1.3 -0.1
v 1 1.3 -0.1
v 1.1 1.3 -0.1
v 1.2 1.3 -0.1
v 1.3 1.3 -0.1
v 0.6 1.3 -0.2
v 0.7 1.3 -0.2
v 0.8 1.3 -0.2
v 0.9 1.3 -0.2
v 1 1.3 -0.2
v 1.1 1.3 -0.2
v 1.2 1.3 -0.2
v 1.3 1.3 -0.2
v 0.6 1.3 -0.3
v 0.7 1.3 -0.3
v 0.8 1.3 -0.3
v 0.9 1.3 -0.3
v 1 1.3 -0.3
v 1.1 1.3 -0.3
v 1.2 1.3 -0.3
v 1.3 1.3 -0.3
v 0.6 1.3 -0.4
v 0.7 1.3 -0.4
v 0.8 1.3 -0.4
v 0.9 1.3 -0.4
v 1 1.3 -0.4
v 1.1 1.3 -0.4
v 1.2 1.3 -0.4
v 1.3 1.3 -0.4
v 0.5 1.3 -0.5
v 1.4 1.3 -0.5

# faces
f 3/2/1 2/2/1 1/2/1
f 4/2/1 2/2/1 3/2/1
f 11/3/1 6/3/1 5/3/1
f 11/3/1 10/3/1 9/3/1
f 11/3/1 9/3/1 8/3/1
f 11/3/1 8/3/1 7/3/1
f 11/3/1 7/3/1 6/3/1
f 12/3/1 10/3/1 11/3/1
f 15/3/1 14/3/1 13/3/1
f 16/3/1 14/3/1 15/3/1
f 19/2/1 18/2/1 17/2/1
f 20/2/1 18/2/1 19/2/1
f 21/2/2 22/2/2 23/2/2
f 23/2/2 22/2/2 24/2/2
f 25/3/2 26/3/2 31/3/2
f 29/3/2 30/3/2 31/3/2
f 28/3/2 29/3/2 31/3/2
f 27/3/2 28/3/2 31/3/2
f 26/3/2 27/3/2 31/3/2
f 31/3/2 30/3/2 32/3/2
f 33/2/2 34/2/2 35/2/2
f 35/2/2 34/2/2 36/2/2
f 39/2/3 38/2/3 37/2/3
f 41/3/3 40/3/3 39/3/3
f 43/3/3 41/3/3 39/3/3
f 43/3/3 42/3/3 41/3/3
f 44/3/3 42/3/3 43/3/3
f 46/2/3 39/2/3 37/2/3
f 47/3/3 43/3/3 39/3/3
f 47/2/3 39/2/3 46/2/3
f 48/3/3 47/3/3 46/3/3
f 49/3/3 43/3/3 47/3/3
f 49/3/3 47/3/3 48/3/3
f 50/2/3 45/2/3 44/2/3
f 50/3/3 43/3/3 49/3/3
f 50/2/3 44/2/3 43/2/3
f 51/2/3 45/2/3 50/2/3
f 52/2/3 45/2/3 51/2/3
f 53/2/3 49/2/3 48/2/3
f 53/3/3 50/3/3 49/3/3
f 53/3/3 51/3/3 50/3/3
f 54/3/3 51/3/3 53/3/3
f 55/2/3 53/2/3 48/2/3
f 56/2/3 53/2/3 55/2/3
f 57/2/4 58/2/4 59/2/4
f 59/3/4 60/3/4 61/3/4
f 59/3/4 61/3/4 63/3/4
f 61/3/4 62/3/4 63/3/4
f 63/3/4 62/3/4 64/3/4
f 57/2/4 59/2/4 66/2/4
f 59/3/4 63/3/4 67/3/4
f 66/2/4 59/2/4 67/2/4
f 66/3/4 67/3/4 68/3/4
f 67/3/4 63/3/4 69/3/4
f 68/3/4 67/3/4 69/3/4
f 64/2/4 65/2/4 70/2/4
f 69/3/4 63/3/4 70/3/4
f 63/2/4 64/2/4 70/2/4
f 70/2/4 65/2/4 71/2/4
f 71/2/4 65/2/4 72/2/4
f 68/2/4 69/2/4 73/2/4
f 69/3/4 70/3/4 73/3/4
f 70/3/4 71/3/4 73/3/4
f 73/3/4 71/3/4 74/3/4
f 68/2/4 73/2/4 75/2/4
f 75/2/4 73/2/4 76/2/4
f 81/2/5 78/2/5 77/2/5
f 82/2/5 78/2/5 81/2/5
f 83/2/5 78/2/5 82/2/5
f 84/2/5 78/2/5 83/2/5
f 85/2/5 78/2/5 84/2/5
f 86/2/5 78/2/5 85/2/5
f 87/2/5 78/2/5 86/2/5
f 88/2/5 78/2/5 87/2/5
f 89/2/5 80/2/5 79/2/5
f 90/2/5 80/2/5 89/2/5
f 91/2/5 80/2/5 90/2/5
f 92/2/5 80/2/5 91/2/5
f 93/2/5 80/2/5 92/2/5
f 94/2/5 80/2/5 93/2/5
f 95/2/5 80/2/5 94/2/5
f 96/2/5 80/2/5 95/2/5
f 97/2/5 81/2/5 77/2/5
f 97/1/5 82/1/5 81/1/5
f 98/2/5 83/2/5 82/2/5
f 98/1/5 82/1/5 97/1/5
f 99/1/5 84/1/5 83/1/5
f 99/2/5 83/2/5 98/2/5
f 100/2/5 85/2/5 84/2/5
f 100/1/5 84/1/5 99/1/5
f 101/1/5 86/1/5 85/1/5
f 101/2/5 85/2/5 100/2/5
f 102/2/5 87/2/5 86/2/5
f 102/1/5 86/1/5 101/1/5
f 103/1/5 88/1/5 87/1/5
f 103/2/5 87/2/5 102/2/5
f 104/2/5 78/2/5 88/2/5
f 104/1/5 88/1/5 103/1/5
f 105/2/5 89/2/5 79/2/5
f 105/1/5 90/1/5 89/1/5
f 106/2/5 91/2/5 90/2/5
f 106/1/5 90/1/5 105/1/5
f 107/1/5 92/1/5 91/1/5
f 107/2/5 91/2/5 106/2/5
f 108/2/5 93/2/5 92/2/5
f 108/1/5 92/1/5 107/1/5
f 109/1/5 94/1/5 93/1/5
f 109/2/5 93/2/5 108/2/5
f 110/2/5 95/2/5 94/2/5
f 110/1/5 94/1/5 109/1/5
f 111/1/5 96/1/5 95/1/5
f 111/2/5 95/2/5 110/2/5
f 112/2/5 80/2/5 96/2/5
f 112/1/5 96/1/5 111/1/5
f 113/2/5 103/2/5 102/2/5
f 113/2/5 97/2/5 77/2/5
f 113/2/5 98/2/5 97/2/5
f 113/2/5 99/2/5 98/2/5
f 113/2/5 100/2/5 99/2/5
f 113/2/5 101/2/5 100/2/5
f 113/2/5 102/2/5 101/2/5
f 113/2/5 104/2/5 103/2/5
f 114/2/5 104/2/5 113/2/5
f 115/2/5 104/2/5 114/2/5
f 116/2/5 104/2/5 115/2/5
f 117/2/5 104/2/5 116/2/5
f 118/2/5 104/2/5 117/2/5
f 119/2/5 104/2/5 118/2/5
f 120/2/5 78/2/5 104/2/5
f 120/2/5 104/2/5 119/2/5
f 121/2/5 111/2/5 110/2/5
f 121/2/5 110/2/5 109/2/5
f 121/2/5 112/2/5 111/2/5
f 121/2/5 109/2/5 108/2/5
f 121/2/5 108/2/5 107/2/5
f 121/2/5 107/2/5 106/2/5
f 121/2/5 106/2/5 105/2/5
f 121/2/5 105/2/5 79/2/5
f 122/2/5 112/2/5 121/2/5
f 123/2/5 112/2/5 122/2/5
f 124/2/5 112/2/5 123/2/5
f 125/2/5 112/2/5 124/2/5
f 126/2/5 112/2/5 125/2/5
f 127/2/5 112/2/5 126/2/5
f 128/2/5 80/2/5 112/2/5
f 128/2/5 112/2/5 127/2/5
f 129/1/5 114/1/5 113/1/5
f 129/2/5 113/2/5 77/2/5
f 130/2/5 115/2/5 114/2/5
f 130/1/5 114/1/5 129/1/5
f 131/1/5 116/1/5 115/1/5
f 131/2/5 115/2/5 130/2/5
f 132/2/5 117/2/5 116/2/5
f 132/1/5 116/1/5 131/1/5
f 133/1/5 118/1/5 117/1/5
f 133/2/5 117/2/5 132/2/5
f 134/2/5 119/2/5 118/2/5
f 134/1/5 118/1/5 133/1/5
f 135/1/5 120/1/5 119/1/5
f 135/2/5 119/2/5 134/2/5
f 136/2/5 78/2/5 120/2/5
f 136/1/5 120/1/5 135/1/5
f 137/2/5 121/2/5 79/2/5
f 137/1/5 122/1/5 121/1/5
f 138/2/5 123/2/5 122/2/5
f 138/1/5 122/1/5 137/1/5
f 139/1/5 124/1/5 123/1/5
f 139/2/5 123/2/5 138/2/5
f 140/2/5 125/2/5 124/2/5
f 140/1/5 124/1/5 139/1/5
f 141/1/5 126/1/5 125/1/5
f 141/2/5 125/2/5 140/2/5
f 142/2/5 127/2/5 126/2/5
f 142/1/5 126/1/5 141/1/5
f 143/1/5 128/1/5 127/1/5
f 143/2/5 127/2/5 142/2/5
f 144/2/5 80/2/5 128/2/5
f 144/1/5 128/1/5 143/1/5
f 145/2/5 135/2/5 134/2/5
f 145/2/5 134/2/5 133/2/5
f 145/2/5 132/2/5 131/2/5
f 145/2/5 131/2/5 130/2/5
f 145/2/5 130/2/5 129/2/5
f 145/2/5 129/2/5 77/2/5
f 145/2/5 133/2/5 132/2/5
f 145/2/5 136/2/5 135/2/5
f 146/3/5 79/3/5 78/3/5
f 146/2/5 136/2/5 145/2/5
f 146/2/5 78/2/5 136/2/5
f 147/2/5 141/2/5 140/2/5
f 147/3/5 79/3/5 146/3/5
f 147/2/5 144/2/5 143/2/5
f 147/2/5 142/2/5 141/2/5
f 147/2/5 143/2/5 142/2/5
f 147/2/5 137/2/5 79/2/5
f 147/2/5 138/2/5 137/2/5
f 147/2/5 139/2/5 138/2/5
f 147/2/5 140/2/5 139/2/5
f 148/2/5 80/2/5 144/2/5
f 148/2/5 144/2/5 147/2/5
f 149/2/6 150/2/6 153/2/6
f 153/2/6 150/2/6 154/2/6
f 151/2/6 152/2/6 155/2/6
f 155/2/6 152/2/6 156/2/6
f 156/2/6 152/2/6 157/2/6
f 157/2/6 152/2/6 158/2/6
f 153/1/6 154/1/6 159/1/6
f 149/2/6 153/2/6 159/2/6
f 159/1/6 154/1/6 160/1/6
f 155/1/6 156/1/6 161/1/6
f 156/2/6 157/2/6 162/2/6
f 161/1/6 156/1/6 162/1/6
f 157/1/6 158/1/6 163/1/6
f 162/2/6 157/2/6 163/2/6
f 158/2/6 152/2/6 164/2/6
f 163/1/6 158/1/6 164/1/6
f 159/2/6 160/2/6 165/2/6
f 149/2/6 159/2/6 165/2/6
f 165/2/6 160/2/6 166/2/6
f 162/2/6 163/2/6 167/2/6
f 161/2/6 162/2/6 167/2/6
f 163/2/6 164/2/6 167/2/6
f 167/2/6 164/2/6 168/2/6
f 168/2/6 164/2/6 169/2/6
f 164/2/6 152/2/6 170/2/6
f 169/2/6 164/2/6 170/2/6
f 165/1/6 166/1/6 171/1/6
f 149/2/6 165/2/6 171/2/6
f 171/1/6 166/1/6 172/1/6
f 167/1/6 168/1/6 173/1/6
f 168/2/6 169/2/6 174/2/6
f 173/1/6 168/1/6 174/1/6
f 169/1/6 170/1/6 175/1/6
f 174/2/6 169/2/6 175/2/6
f 170/2/6 152/2/6 176/2/6
f 175/1/6 170/1/6 176/1/6
f 171/2/6 172/2/6 177/2/6
f 149/2/6 171/2/6 177/2/6
f 177/2/6 172/2/6 178/2/6
f 174/2/6 175/2/6 179/2/6
f 173/2/6 174/2/6 179/2/6
f 175/2/6 176/2/6 179/2/6
f 176/2/6 152/2/6 180/2/6
f 179/2/6 176/2/6 180/2/6
f 181/3/6 182/3/6 183/3/6
f 183/3/6 182/3/6 184/3/6
f 185/3/6 186/3/6 187/3/6
f 187/3/6 186/3/6 188/3/6
f 189/3/6 190/3/6 191/3/6
f 191/3/6 190/3/6 192/3/6
f 193/2/6 194/2/6 195/2/6
f 195/2/6 194/2/6 196/2/6
f 196/2/6 194/2/6 197/2/6
f 197/2/6 194/2/6 198/2/6
f 198/2/6 194/2/6 199/2/6
f 199/2/6 194/2/6 200/2/6
f 200/2/6 194/2/6 201/2/6
f 201/2/6 194/2/6 202/2/6
f 193/2/6 195/2/6 203/2/6
f 195/1/6 196/1/6 203/1/6
f 196/2/6 197/2/6 204/2/6
f 203/1/6 196/1/6 204/1/6
f 197/1/6 198/1/6 205/1/6
f 204/2/6 197/2/6 205/2/6
f 198/2/6 199/2/6 206/2/6
f 205/1/6 198/1/6 206/1/6
f 199/1/6 200/1/6 207/1/6
f 206/2/6 199/2/6 207/2/6
f 200/2/6 201/2/6 208/2/6
f 207/1/6 200/1/6 208/1/6
f 201/1/6 202/1/6 209/1/6
f 208/2/6 201/2/6 209/2/6
f 202/2/6 194/2/6 210/2/6
f 209/1/6 202/1/6 210/1/6
f 208/2/6 209/2/6 211/2/6
f 207/2/6 208/2/6 211/2/6
f 209/2/6 210/2/6 211/2/6
f 206/2/6 207/2/6 211/2/6
f 205/2/6 206/2/6 211/2/6
f 204/2/6 205/2/6 211/2/6
f 203/2/6 204/2/6 211/2/6
f 193/2/6 203/2/6 211/2/6
f 211/2/6 210/2/6 212/2/6
f 212/2/6 210/2/6 213/2/6
f 213/2/6 210/2/6 214/2/6
f 214/2/6 210/2/6 215/2/6
f 215/2/6 210/2/6 216/2/6
f 216/2/6 210/2/6 217/2/6
f 210/2/6 194/2/6 218/2/6
f 217/2/6 210/2/6 218/2/6
f 193/2/6 211/2/6 219/2/6
f 211/1/6 212/1/6 219/1/6
f 212/2/6 213/2/6 220/2/6
f 219/1/6 212/1/6 220/1/6
f 213/1/6 214/1/6 221/1/6
f 220/2/6 213/2/6 221/2/6
f 214/2/6 215/2/6 222/2/6
f 221/1/6 214/1/6 222/1/6
f 215/1/6 216/1/6 223/1/6
f 222/2/6 215/2/6 223/2/6
f 216/2/6 217/2/6 224/2/6
f 223/1/6 216/1/6 224/1/6
f 217/1/6 218/1/6 225/1/6
f 224/2/6 217/2/6 225/2/6
f 218/2/6 194/2/6 226/2/6
f 225/1/6 218/1/6 226/1/6
f 222/2/6 223/2/6 227/2/6
f 224/2/6 225/2/6 227/2/6
f 225/2/6 226/2/6 227/2/6
f 221/2/6 222/2/6 227/2/6
f 220/2/6 221/2/6 227/2/6
f 219/2/6 220/2/6 227/2/6
f 193/2/6 219/2/6 227/2/6
f 223/2/6 224/2/6 227/2/6
f 226/2/6 194/2/6 228/2/6
f 227/2/6 226/2/6 228/2/6
