# MagicaVoxel @ Ephtracy

# group
o 

# material
mtllib axe.mtl
usemtl palette

# normals
vn -1 0 0
vn 1 0 0
vn 0 0 1
vn 0 0 -1
vn 0 -1 0
vn 0 1 0

# texcoords
vt 0.908203 0.5
vt 0.912109 0.5
vt 0.939453 0.5
vt 0.943359 0.5
vt 0.970703 0.5
vt 0.974609 0.5
vt 0.978516 0.5

# verts
v -0.5 0 0.3
v -0.5 0 -0.4
v -0.5 0.1 -0.1
v -0.5 0.1 -0.2
v -0.5 0.2 0.2
v -0.5 0.2 0.1
v -0.5 0.3 -0.1
v -0.5 0.3 -0.2
v -0.5 0.3 -0.3
v -0.5 0.5 0.2
v -0.5 0.5 0.1
v -0.5 0.5 -0.2
v -0.5 0.5 -0.3
v -0.5 0.6 0.3
v -0.5 0.6 -0.4
v -0.4 0.6 0
v -0.4 0.6 -0.1
v -0.4 0.7 0
v -0.4 0.7 -0.1
v -0.4 0.9 0
v -0.4 0.9 -0.1
v -0.4 1 0
v -0.4 1 -0.1
v -0.3 0.7 0
v -0.3 0.7 -0.1
v -0.3 0.9 0
v -0.3 0.9 -0.1
v -0.1 0.8 0
v -0.1 0.8 -0.1
v -0.1 0.9 0
v -0.1 0.9 -0.1
v 0 0.7 0
v 0 0.7 -0.1
v 0 0.8 0
v 0 0.8 -0.1
v 0.1 0.6 0
v 0.1 0.6 -0.1
v 0.1 0.7 0
v 0.1 0.7 -0.1
v 0.2 0 0.3
v 0.2 0 -0.4
v 0.2 0.1 0.2
v 0.2 0.1 0.1
v 0.2 0.1 -0.1
v 0.2 0.1 -0.2
v 0.2 0.2 0.2
v 0.2 0.2 0.1
v 0.2 0.2 0
v 0.2 0.2 -0.1
v 0.2 0.2 -0.2
v 0.2 0.2 -0.3
v 0.2 0.4 0.2
v 0.2 0.4 0.1
v 0.2 0.4 0
v 0.2 0.5 0.2
v 0.2 0.5 0.1
v 0.2 0.5 -0.2
v 0.2 0.5 -0.3
v 0.2 0.6 0.3
v 0.2 0.6 -0.4
v 0.6 0.9 0
v 0.6 0.9 -0.1
v 0.6 1 0
v 0.6 1 -0.1
v -0.5 0 0.3
v -0.5 0.6 0.3
v -0.4 0.1 0.3
v -0.4 0.4 0.3
v -0.3 0.1 0.3
v -0.3 0.4 0.3
v -0.3 0.5 0.3
v -0.2 0.4 0.3
v -0.2 0.5 0.3
v -0.1 0.3 0.3
v -0.1 0.5 0.3
v 0 0.1 0.3
v 0 0.3 0.3
v 0 0.5 0.3
v 0.1 0.1 0.3
v 0.1 0.3 0.3
v 0.2 0 0.3
v 0.2 0.6 0.3
v -0.4 0.6 0
v -0.4 0.7 0
v -0.4 0.9 0
v -0.4 1 0
v -0.3 0.6 0
v -0.3 0.7 0
v -0.3 0.9 0
v -0.2 0.7 0
v -0.2 0.8 0
v -0.2 0.9 0
v -0.1 0.7 0
v -0.1 0.8 0
v -0.1 0.9 0
v 0 0.6 0
v 0 0.7 0
v 0 0.8 0
v 0.1 0.6 0
v 0.1 0.7 0
v 0.6 0.9 0
v 0.6 1 0
v -0.4 0.6 -0.1
v -0.4 0.7 -0.1
v -0.4 0.9 -0.1
v -0.4 1 -0.1
v -0.3 0.6 -0.1
v -0.3 0.7 -0.1
v -0.3 0.9 -0.1
v -0.2 0.7 -0.1
v -0.2 0.8 -0.1
v -0.2 0.9 -0.1
v -0.1 0.7 -0.1
v -0.1 0.8 -0.1
v -0.1 0.9 -0.1
v 0 0.6 -0.1
v 0 0.7 -0.1
v 0 0.8 -0.1
v 0.1 0.6 -0.1
v 0.1 0.7 -0.1
v 0.6 0.9 -0.1
v 0.6 1 -0.1
v -0.5 0 -0.4
v -0.5 0.6 -0.4
v -0.4 0.2 -0.4
v -0.4 0.4 -0.4
v -0.3 0.1 -0.4
v -0.3 0.2 -0.4
v -0.3 0.4 -0.4
v -0.2 0.1 -0.4
v -0.2 0.2 -0.4
v -0.1 0.2 -0.4
v -0.1 0.5 -0.4
v 0 0.2 -0.4
v 0 0.5 -0.4
v 0.2 0 -0.4
v 0.2 0.6 -0.4
v -0.5 0 0.3
v 0.2 0 0.3
v -0.4 0 0.2
v 0.1 0 0.2
v -0.3 0 0.1
v 0 0 0.1
v -0.2 0 0
v -0.1 0 0
v -0.2 0 -0.1
v -0.1 0 -0.1
v -0.3 0 -0.2
v 0 0 -0.2
v -0.4 0 -0.3
v 0.1 0 -0.3
v -0.5 0 -0.4
v 0.2 0 -0.4
v -0.4 0.9 0
v -0.3 0.9 0
v -0.1 0.9 0
v 0.6 0.9 0
v -0.4 0.9 -0.1
v -0.3 0.9 -0.1
v -0.1 0.9 -0.1
v 0.6 0.9 -0.1
v -0.5 0.6 0.3
v 0.2 0.6 0.3
v -0.4 0.6 0.2
v 0.1 0.6 0.2
v -0.3 0.6 0.1
v 0 0.6 0.1
v -0.4 0.6 0
v -0.3 0.6 0
v 0 0.6 0
v 0.1 0.6 0
v -0.4 0.6 -0.1
v -0.3 0.6 -0.1
v 0 0.6 -0.1
v 0.1 0.6 -0.1
v -0.3 0.6 -0.2
v 0 0.6 -0.2
v -0.4 0.6 -0.3
v 0.1 0.6 -0.3
v -0.5 0.6 -0.4
v 0.2 0.6 -0.4
v -0.4 0.7 0
v -0.3 0.7 0
v 0 0.7 0
v 0.1 0.7 0
v -0.4 0.7 -0.1
v -0.3 0.7 -0.1
v 0 0.7 -0.1
v 0.1 0.7 -0.1
v -0.1 0.8 0
v 0 0.8 0
v -0.1 0.8 -0.1
v 0 0.8 -0.1
v -0.4 1 0
v 0.6 1 0
v -0.4 1 -0.1
v 0.6 1 -0.1

# faces
f 3/6/1 2/6/1 1/6/1
f 4/6/1 2/6/1 3/6/1
f 5/6/1 3/6/1 1/6/1
f 6/6/1 3/6/1 5/6/1
f 7/7/1 4/7/1 3/7/1
f 7/6/1 3/6/1 6/6/1
f 8/6/1 2/6/1 4/6/1
f 8/7/1 4/7/1 7/7/1
f 9/6/1 2/6/1 8/6/1
f 10/7/1 6/7/1 5/7/1
f 10/6/1 5/6/1 1/6/1
f 11/6/1 7/6/1 6/6/1
f 11/7/1 6/7/1 10/7/1
f 11/6/1 8/6/1 7/6/1
f 12/7/1 9/7/1 8/7/1
f 12/6/1 8/6/1 11/6/1
f 13/6/1 2/6/1 9/6/1
f 13/7/1 9/7/1 12/7/1
f 14/6/1 10/6/1 1/6/1
f 14/6/1 12/6/1 11/6/1
f 14/6/1 13/6/1 12/6/1
f 14/6/1 11/6/1 10/6/1
f 15/6/1 2/6/1 13/6/1
f 15/6/1 13/6/1 14/6/1
f 18/3/1 17/3/1 16/3/1
f 19/3/1 17/3/1 18/3/1
f 22/6/1 21/6/1 20/6/1
f 23/6/1 21/6/1 22/6/1
f 26/3/1 25/3/1 24/3/1
f 27/3/1 25/3/1 26/3/1
f 28/1/2 29/1/2 30/1/2
f 30/1/2 29/1/2 31/1/2
f 32/1/2 33/1/2 34/1/2
f 34/1/2 33/1/2 35/1/2
f 36/1/2 37/1/2 38/1/2
f 38/1/2 37/1/2 39/1/2
f 40/6/2 41/6/2 42/6/2
f 42/6/2 41/6/2 43/6/2
f 43/6/2 41/6/2 44/6/2
f 44/6/2 41/6/2 45/6/2
f 40/6/2 42/6/2 46/6/2
f 42/7/2 43/7/2 46/7/2
f 43/6/2 44/6/2 47/6/2
f 46/7/2 43/7/2 47/7/2
f 47/6/2 44/6/2 48/6/2
f 44/7/2 45/7/2 49/7/2
f 48/6/2 44/6/2 49/6/2
f 45/6/2 41/6/2 50/6/2
f 49/7/2 45/7/2 50/7/2
f 50/6/2 41/6/2 51/6/2
f 40/6/2 46/6/2 52/6/2
f 46/6/2 47/6/2 52/6/2
f 47/7/2 48/7/2 53/7/2
f 52/6/2 47/6/2 53/6/2
f 48/6/2 49/6/2 54/6/2
f 53/7/2 48/7/2 54/7/2
f 49/6/2 50/6/2 54/6/2
f 52/7/2 53/7/2 55/7/2
f 40/6/2 52/6/2 55/6/2
f 53/6/2 54/6/2 56/6/2
f 55/7/2 53/7/2 56/7/2
f 54/6/2 50/6/2 57/6/2
f 56/6/2 54/6/2 57/6/2
f 50/7/2 51/7/2 57/7/2
f 51/6/2 41/6/2 58/6/2
f 57/7/2 51/7/2 58/7/2
f 55/6/2 56/6/2 59/6/2
f 40/6/2 55/6/2 59/6/2
f 57/6/2 58/6/2 59/6/2
f 56/6/2 57/6/2 59/6/2
f 58/6/2 41/6/2 60/6/2
f 59/6/2 58/6/2 60/6/2
f 61/6/2 62/6/2 63/6/2
f 63/6/2 62/6/2 64/6/2
f 67/6/3 66/6/3 65/6/3
f 68/6/3 66/6/3 67/6/3
f 69/6/3 67/6/3 65/6/3
f 69/7/3 68/7/3 67/7/3
f 70/6/3 66/6/3 68/6/3
f 70/7/3 68/7/3 69/7/3
f 71/6/3 66/6/3 70/6/3
f 72/6/3 70/6/3 69/6/3
f 72/7/3 71/7/3 70/7/3
f 73/6/3 66/6/3 71/6/3
f 73/7/3 71/7/3 72/7/3
f 74/6/3 72/6/3 69/6/3
f 74/6/3 73/6/3 72/6/3
f 75/6/3 66/6/3 73/6/3
f 75/6/3 73/6/3 74/6/3
f 76/6/3 69/6/3 65/6/3
f 76/6/3 74/6/3 69/6/3
f 77/7/3 75/7/3 74/7/3
f 77/6/3 74/6/3 76/6/3
f 78/6/3 66/6/3 75/6/3
f 78/7/3 75/7/3 77/7/3
f 79/7/3 77/7/3 76/7/3
f 79/6/3 76/6/3 65/6/3
f 80/6/3 78/6/3 77/6/3
f 80/7/3 77/7/3 79/7/3
f 81/6/3 79/6/3 65/6/3
f 81/6/3 80/6/3 79/6/3
f 82/6/3 66/6/3 78/6/3
f 82/6/3 80/6/3 81/6/3
f 82/6/3 78/6/3 80/6/3
f 87/3/3 84/3/3 83/3/3
f 88/3/3 84/3/3 87/3/3
f 89/6/3 86/6/3 85/6/3
f 90/5/3 88/5/3 87/5/3
f 90/3/3 89/3/3 88/3/3
f 91/3/3 89/3/3 90/3/3
f 92/6/3 86/6/3 89/6/3
f 92/3/3 89/3/3 91/3/3
f 93/5/3 91/5/3 90/5/3
f 93/5/3 90/5/3 87/5/3
f 94/1/3 92/1/3 91/1/3
f 94/5/3 91/5/3 93/5/3
f 95/6/3 86/6/3 92/6/3
f 95/1/3 92/1/3 94/1/3
f 96/5/3 93/5/3 87/5/3
f 97/1/3 94/1/3 93/1/3
f 97/5/3 93/5/3 96/5/3
f 98/1/3 94/1/3 97/1/3
f 99/1/3 97/1/3 96/1/3
f 100/1/3 97/1/3 99/1/3
f 101/6/3 86/6/3 95/6/3
f 102/6/3 86/6/3 101/6/3
f 103/3/4 104/3/4 107/3/4
f 107/3/4 104/3/4 108/3/4
f 105/6/4 106/6/4 109/6/4
f 107/5/4 108/5/4 110/5/4
f 108/3/4 109/3/4 110/3/4
f 110/3/4 109/3/4 111/3/4
f 109/6/4 106/6/4 112/6/4
f 111/3/4 109/3/4 112/3/4
f 110/5/4 111/5/4 113/5/4
f 107/5/4 110/5/4 113/5/4
f 111/1/4 112/1/4 114/1/4
f 113/5/4 111/5/4 114/5/4
f 112/6/4 106/6/4 115/6/4
f 114/1/4 112/1/4 115/1/4
f 107/5/4 113/5/4 116/5/4
f 113/1/4 114/1/4 117/1/4
f 116/5/4 113/5/4 117/5/4
f 117/1/4 114/1/4 118/1/4
f 116/1/4 117/1/4 119/1/4
f 119/1/4 117/1/4 120/1/4
f 115/6/4 106/6/4 121/6/4
f 121/6/4 106/6/4 122/6/4
f 123/6/4 124/6/4 125/6/4
f 125/6/4 124/6/4 126/6/4
f 123/6/4 125/6/4 127/6/4
f 125/7/4 126/7/4 128/7/4
f 127/6/4 125/6/4 128/6/4
f 126/6/4 124/6/4 129/6/4
f 128/7/4 126/7/4 129/7/4
f 127/7/4 128/7/4 130/7/4
f 123/6/4 127/6/4 130/6/4
f 128/6/4 129/6/4 131/6/4
f 130/7/4 128/7/4 131/7/4
f 130/6/4 131/6/4 132/6/4
f 131/6/4 129/6/4 132/6/4
f 129/6/4 124/6/4 133/6/4
f 132/6/4 129/6/4 133/6/4
f 130/6/4 132/6/4 134/6/4
f 132/7/4 133/7/4 134/7/4
f 133/6/4 124/6/4 135/6/4
f 134/7/4 133/7/4 135/7/4
f 130/6/4 134/6/4 136/6/4
f 123/6/4 130/6/4 136/6/4
f 134/6/4 135/6/4 136/6/4
f 135/6/4 124/6/4 137/6/4
f 136/6/4 135/6/4 137/6/4
f 140/6/5 139/6/5 138/6/5
f 141/6/5 139/6/5 140/6/5
f 142/4/5 141/4/5 140/4/5
f 143/4/5 141/4/5 142/4/5
f 144/2/5 143/2/5 142/2/5
f 145/2/5 143/2/5 144/2/5
f 146/2/5 144/2/5 142/2/5
f 146/4/5 145/4/5 144/4/5
f 147/2/5 143/2/5 145/2/5
f 147/4/5 145/4/5 146/4/5
f 148/4/5 142/4/5 140/4/5
f 148/2/5 146/2/5 142/2/5
f 148/2/5 147/2/5 146/2/5
f 149/2/5 143/2/5 147/2/5
f 149/2/5 147/2/5 148/2/5
f 149/4/5 141/4/5 143/4/5
f 150/6/5 140/6/5 138/6/5
f 150/4/5 148/4/5 140/4/5
f 150/4/5 149/4/5 148/4/5
f 151/4/5 141/4/5 149/4/5
f 151/4/5 149/4/5 150/4/5
f 151/6/5 139/6/5 141/6/5
f 152/6/5 150/6/5 138/6/5
f 152/6/5 151/6/5 150/6/5
f 153/6/5 139/6/5 151/6/5
f 153/6/5 151/6/5 152/6/5
f 158/6/5 155/6/5 154/6/5
f 159/6/5 155/6/5 158/6/5
f 160/6/5 157/6/5 156/6/5
f 161/6/5 157/6/5 160/6/5
f 162/6/6 163/6/6 164/6/6
f 164/6/6 163/6/6 165/6/6
f 164/4/6 165/4/6 166/4/6
f 166/4/6 165/4/6 167/4/6
f 162/6/6 164/6/6 168/6/6
f 164/4/6 166/4/6 168/4/6
f 166/2/6 167/2/6 169/2/6
f 168/4/6 166/4/6 169/4/6
f 167/4/6 165/4/6 170/4/6
f 169/2/6 167/2/6 170/2/6
f 165/6/6 163/6/6 171/6/6
f 170/4/6 165/4/6 171/4/6
f 162/6/6 168/6/6 172/6/6
f 171/6/6 163/6/6 175/6/6
f 173/2/6 174/2/6 176/2/6
f 172/4/6 173/4/6 176/4/6
f 174/4/6 175/4/6 177/4/6
f 176/2/6 174/2/6 177/2/6
f 172/4/6 176/4/6 178/4/6
f 162/6/6 172/6/6 178/6/6
f 176/4/6 177/4/6 178/4/6
f 177/4/6 175/4/6 179/4/6
f 178/4/6 177/4/6 179/4/6
f 175/6/6 163/6/6 179/6/6
f 162/6/6 178/6/6 180/6/6
f 178/6/6 179/6/6 180/6/6
f 179/6/6 163/6/6 181/6/6
f 180/6/6 179/6/6 181/6/6
f 182/3/6 183/3/6 186/3/6
f 186/3/6 183/3/6 187/3/6
f 184/1/6 185/1/6 188/1/6
f 188/1/6 185/1/6 189/1/6
f 190/1/6 191/1/6 192/1/6
f 192/1/6 191/1/6 193/1/6
f 194/6/6 195/6/6 196/6/6
f 196/6/6 195/6/6 197/6/6
