# MagicaVoxel @ Ephtracy

# group
o 

# material
mtllib target.mtl
usemtl palette

# normals
vn -1 0 0
vn 1 0 0
vn 0 0 1
vn 0 0 -1
vn 0 -1 0
vn 0 1 0

# texcoords
vt 0.939453 0.5
vt 0.970703 0.5
vt 0.974609 0.5

# verts
v -0.4 1 0.2
v -0.4 1 0.1
v -0.4 1.5 0.2
v -0.4 1.5 0.1
v -0.3 0 0.1
v -0.3 0 0
v -0.3 0.7 0.2
v -0.3 0.7 0.1
v -0.3 0.8 0.2
v -0.3 0.8 0
v -0.3 0.9 0.2
v -0.3 0.9 0.1
v -0.3 1 0.2
v -0.3 1 0.1
v -0.3 1.2 0.1
v -0.3 1.2 0
v -0.3 1.3 0.1
v -0.3 1.3 0
v -0.3 1.5 0.2
v -0.3 1.5 0.1
v -0.3 1.6 0.2
v -0.3 1.6 0.1
v -0.2 0.8 0.2
v -0.2 0.8 0.1
v -0.2 0.8 0
v -0.2 0.9 0.2
v -0.2 0.9 0.1
v -0.2 1 0.1
v -0.2 1.2 0.1
v -0.2 1.2 0
v -0.2 1.3 0.1
v -0.2 1.3 0
v -0.2 1.5 0.1
v -0.2 1.5 0
v -0.2 1.6 0.2
v -0.2 1.6 0.1
v -0.2 1.7 0.2
v -0.2 1.7 0.1
v 0 0 -0.2
v 0 0 -0.3
v 0 1 -0.1
v 0 1 -0.2
v 0 1.1 0
v 0 1.1 -0.1
v 0 1.1 -0.2
v 0 1.1 -0.3
v 0 1.2 0
v 0 1.2 -0.1
v 0 1.2 -0.2
v 0 1.3 0
v 0 1.3 -0.1
v 0.2 0.8 0.1
v 0.2 0.8 0
v 0.2 0.9 0.1
v 0.2 1 0.1
v 0.2 1.1 0.1
v 0.2 1.2 0.1
v 0.2 1.2 0
v 0.2 1.3 0.1
v 0.2 1.3 0
v 0.2 1.4 0.1
v 0.2 1.5 0.1
v 0.2 1.5 0
v 0.3 0 0.1
v 0.3 0 0
v 0.3 0.7 0.1
v 0.3 0.7 0
v -0.2 0 0.1
v -0.2 0 0
v -0.2 0.7 0.1
v -0.2 0.7 0
v -0.1 0.8 0.1
v -0.1 0.8 0
v -0.1 0.9 0.1
v -0.1 1 0.1
v -0.1 1.1 0.1
v -0.1 1.2 0.1
v -0.1 1.2 0
v -0.1 1.3 0.1
v -0.1 1.3 0
v -0.1 1.4 0.1
v -0.1 1.5 0.1
v -0.1 1.5 0
v 0.1 0 -0.2
v 0.1 0 -0.3
v 0.1 1 -0.1
v 0.1 1 -0.2
v 0.1 1.1 0
v 0.1 1.1 -0.1
v 0.1 1.1 -0.2
v 0.1 1.1 -0.3
v 0.1 1.2 0
v 0.1 1.2 -0.1
v 0.1 1.2 -0.2
v 0.1 1.3 0
v 0.1 1.3 -0.1
v 0.3 0.8 0.2
v 0.3 0.8 0.1
v 0.3 0.8 0
v 0.3 0.9 0.2
v 0.3 0.9 0.1
v 0.3 1 0.1
v 0.3 1.2 0.1
v 0.3 1.2 0
v 0.3 1.3 0.1
v 0.3 1.3 0
v 0.3 1.5 0.1
v 0.3 1.5 0
v 0.3 1.6 0.2
v 0.3 1.6 0.1
v 0.3 1.7 0.2
v 0.3 1.7 0.1
v 0.4 0 0.1
v 0.4 0 0
v 0.4 0.7 0.2
v 0.4 0.7 0.1
v 0.4 0.8 0.2
v 0.4 0.8 0
v 0.4 0.9 0.2
v 0.4 0.9 0.1
v 0.4 1 0.2
v 0.4 1 0.1
v 0.4 1.2 0.1
v 0.4 1.2 0
v 0.4 1.3 0.1
v 0.4 1.3 0
v 0.4 1.5 0.2
v 0.4 1.5 0.1
v 0.4 1.6 0.2
v 0.4 1.6 0.1
v 0.5 1 0.2
v 0.5 1 0.1
v 0.5 1.5 0.2
v 0.5 1.5 0.1
v -0.4 1 0.2
v -0.4 1.5 0.2
v -0.3 0.7 0.2
v -0.3 0.8 0.2
v -0.3 0.9 0.2
v -0.3 1 0.2
v -0.3 1.5 0.2
v -0.3 1.6 0.2
v -0.2 0.8 0.2
v -0.2 0.9 0.2
v -0.2 1 0.2
v -0.2 1.1 0.2
v -0.2 1.4 0.2
v -0.2 1.5 0.2
v -0.2 1.6 0.2
v -0.2 1.7 0.2
v -0.1 1 0.2
v -0.1 1.1 0.2
v -0.1 1.4 0.2
v -0.1 1.5 0.2
v 0 1.2 0.2
v 0 1.3 0.2
v 0.1 1.2 0.2
v 0.1 1.3 0.2
v 0.2 1 0.2
v 0.2 1.1 0.2
v 0.2 1.4 0.2
v 0.2 1.5 0.2
v 0.3 0.8 0.2
v 0.3 0.9 0.2
v 0.3 1 0.2
v 0.3 1.1 0.2
v 0.3 1.4 0.2
v 0.3 1.5 0.2
v 0.3 1.6 0.2
v 0.3 1.7 0.2
v 0.4 0.7 0.2
v 0.4 0.8 0.2
v 0.4 0.9 0.2
v 0.4 1 0.2
v 0.4 1.5 0.2
v 0.4 1.6 0.2
v 0.5 1 0.2
v 0.5 1.5 0.2
v -0.3 0 0.1
v -0.3 0.7 0.1
v -0.2 0 0.1
v -0.2 0.7 0.1
v 0.3 0 0.1
v 0.3 0.7 0.1
v 0.4 0 0.1
v 0.4 0.7 0.1
v 0 1.1 0
v 0 1.2 0
v 0.1 1.1 0
v 0.1 1.2 0
v 0 1 -0.1
v 0 1.1 -0.1
v 0.1 1 -0.1
v 0.1 1.1 -0.1
v 0 0 -0.2
v 0 1 -0.2
v 0.1 0 -0.2
v 0.1 1 -0.2
v -0.4 1 0.1
v -0.4 1.5 0.1
v -0.3 0.9 0.1
v -0.3 1 0.1
v -0.3 1.2 0.1
v -0.3 1.3 0.1
v -0.3 1.5 0.1
v -0.3 1.6 0.1
v -0.2 0.9 0.1
v -0.2 1 0.1
v -0.2 1.2 0.1
v -0.2 1.3 0.1
v -0.2 1.5 0.1
v -0.2 1.6 0.1
v -0.2 1.7 0.1
v -0.1 0.8 0.1
v -0.1 0.9 0.1
v -0.1 1 0.1
v -0.1 1.1 0.1
v -0.1 1.2 0.1
v -0.1 1.3 0.1
v -0.1 1.4 0.1
v -0.1 1.5 0.1
v 0.2 0.8 0.1
v 0.2 0.9 0.1
v 0.2 1 0.1
v 0.2 1.1 0.1
v 0.2 1.2 0.1
v 0.2 1.3 0.1
v 0.2 1.4 0.1
v 0.2 1.5 0.1
v 0.3 0.9 0.1
v 0.3 1 0.1
v 0.3 1.2 0.1
v 0.3 1.3 0.1
v 0.3 1.5 0.1
v 0.3 1.6 0.1
v 0.3 1.7 0.1
v 0.4 0.9 0.1
v 0.4 1 0.1
v 0.4 1.2 0.1
v 0.4 1.3 0.1
v 0.4 1.5 0.1
v 0.4 1.6 0.1
v 0.5 1 0.1
v 0.5 1.5 0.1
v -0.3 0 0
v -0.3 0.8 0
v -0.3 1.2 0
v -0.3 1.3 0
v -0.2 0 0
v -0.2 0.7 0
v -0.2 0.8 0
v -0.2 1.2 0
v -0.2 1.3 0
v -0.2 1.5 0
v -0.1 0.8 0
v -0.1 1.2 0
v -0.1 1.3 0
v -0.1 1.5 0
v 0 1.2 0
v 0 1.3 0
v 0.1 1.2 0
v 0.1 1.3 0
v 0.2 0.8 0
v 0.2 1.2 0
v 0.2 1.3 0
v 0.2 1.5 0
v 0.3 0 0
v 0.3 0.7 0
v 0.3 0.8 0
v 0.3 1.2 0
v 0.3 1.3 0
v 0.3 1.5 0
v 0.4 0 0
v 0.4 0.8 0
v 0.4 1.2 0
v 0.4 1.3 0
v 0 1.2 -0.1
v 0 1.3 -0.1
v 0.1 1.2 -0.1
v 0.1 1.3 -0.1
v 0 1.1 -0.2
v 0 1.2 -0.2
v 0.1 1.1 -0.2
v 0.1 1.2 -0.2
v 0 0 -0.3
v 0 1.1 -0.3
v 0.1 0 -0.3
v 0.1 1.1 -0.3
v -0.3 0 0.1
v -0.2 0 0.1
v 0.3 0 0.1
v 0.4 0 0.1
v -0.3 0 0
v -0.2 0 0
v 0.3 0 0
v 0.4 0 0
v 0 0 -0.2
v 0.1 0 -0.2
v 0 0 -0.3
v 0.1 0 -0.3
v -0.3 0.7 0.2
v 0.4 0.7 0.2
v -0.3 0.7 0.1
v -0.2 0.7 0.1
v 0.3 0.7 0.1
v 0.4 0.7 0.1
v -0.2 0.7 0
v 0.3 0.7 0
v -0.3 0.9 0.2
v -0.2 0.9 0.2
v 0.3 0.9 0.2
v 0.4 0.9 0.2
v -0.3 0.9 0.1
v -0.2 0.9 0.1
v 0.3 0.9 0.1
v 0.4 0.9 0.1
v -0.4 1 0.2
v -0.3 1 0.2
v 0.4 1 0.2
v 0.5 1 0.2
v -0.4 1 0.1
v -0.3 1 0.1
v 0.4 1 0.1
v 0.5 1 0.1
v 0 1 -0.1
v 0.1 1 -0.1
v 0 1 -0.2
v 0.1 1 -0.2
v 0 1.1 0
v 0.1 1.1 0
v 0 1.1 -0.1
v 0.1 1.1 -0.1
v -0.3 1.2 0.1
v -0.2 1.2 0.1
v -0.1 1.2 0.1
v 0.2 1.2 0.1
v 0.3 1.2 0.1
v 0.4 1.2 0.1
v -0.3 1.2 0
v -0.2 1.2 0
v -0.1 1.2 0
v 0 1.2 0
v 0.1 1.2 0
v 0.2 1.2 0
v 0.3 1.2 0
v 0.4 1.2 0
v -0.3 0.8 0.2
v -0.2 0.8 0.2
v 0.3 0.8 0.2
v 0.4 0.8 0.2
v -0.2 0.8 0.1
v -0.1 0.8 0.1
v 0.2 0.8 0.1
v 0.3 0.8 0.1
v -0.3 0.8 0
v -0.2 0.8 0
v -0.1 0.8 0
v 0.2 0.8 0
v 0.3 0.8 0
v 0.4 0.8 0
v 0 1.1 -0.2
v 0.1 1.1 -0.2
v 0 1.1 -0.3
v 0.1 1.1 -0.3
v 0 1.2 -0.1
v 0.1 1.2 -0.1
v 0 1.2 -0.2
v 0.1 1.2 -0.2
v -0.3 1.3 0.1
v -0.2 1.3 0.1
v -0.1 1.3 0.1
v 0.2 1.3 0.1
v 0.3 1.3 0.1
v 0.4 1.3 0.1
v -0.3 1.3 0
v -0.2 1.3 0
v -0.1 1.3 0
v 0 1.3 0
v 0.1 1.3 0
v 0.2 1.3 0
v 0.3 1.3 0
v 0.4 1.3 0
v 0 1.3 -0.1
v 0.1 1.3 -0.1
v -0.4 1.5 0.2
v -0.3 1.5 0.2
v 0.4 1.5 0.2
v 0.5 1.5 0.2
v -0.4 1.5 0.1
v -0.3 1.5 0.1
v -0.2 1.5 0.1
v -0.1 1.5 0.1
v 0.2 1.5 0.1
v 0.3 1.5 0.1
v 0.4 1.5 0.1
v 0.5 1.5 0.1
v -0.2 1.5 0
v -0.1 1.5 0
v 0.2 1.5 0
v 0.3 1.5 0
v -0.3 1.6 0.2
v -0.2 1.6 0.2
v 0.3 1.6 0.2
v 0.4 1.6 0.2
v -0.3 1.6 0.1
v -0.2 1.6 0.1
v 0.3 1.6 0.1
v 0.4 1.6 0.1
v -0.2 1.7 0.2
v 0.3 1.7 0.2
v -0.2 1.7 0.1
v 0.3 1.7 0.1

# faces
f 3/2/1 2/2/1 1/2/1
f 4/2/1 2/2/1 3/2/1
f 8/3/1 6/3/1 5/3/1
f 9/3/1 8/3/1 7/3/1
f 10/3/1 6/3/1 8/3/1
f 10/3/1 8/3/1 9/3/1
f 13/2/1 12/2/1 11/2/1
f 14/2/1 12/2/1 13/2/1
f 17/3/1 16/3/1 15/3/1
f 18/3/1 16/3/1 17/3/1
f 21/2/1 20/2/1 19/2/1
f 22/2/1 20/2/1 21/2/1
f 26/2/1 24/2/1 23/2/1
f 27/3/1 25/3/1 24/3/1
f 27/2/1 24/2/1 26/2/1
f 28/3/1 25/3/1 27/3/1
f 29/3/1 25/3/1 28/3/1
f 30/3/1 25/3/1 29/3/1
f 33/3/1 32/3/1 31/3/1
f 34/3/1 32/3/1 33/3/1
f 37/2/1 36/2/1 35/2/1
f 38/2/1 36/2/1 37/2/1
f 42/3/1 40/3/1 39/3/1
f 44/3/1 42/3/1 41/3/1
f 45/3/1 40/3/1 42/3/1
f 45/3/1 42/3/1 44/3/1
f 46/3/1 40/3/1 45/3/1
f 47/3/1 44/3/1 43/3/1
f 47/3/1 45/3/1 44/3/1
f 48/3/1 45/3/1 47/3/1
f 49/3/1 45/3/1 48/3/1
f 50/3/1 48/3/1 47/3/1
f 51/3/1 48/3/1 50/3/1
f 54/3/1 53/3/1 52/3/1
f 55/3/1 53/3/1 54/3/1
f 56/3/1 53/3/1 55/3/1
f 57/3/1 53/3/1 56/3/1
f 58/3/1 53/3/1 57/3/1
f 61/3/1 60/3/1 59/3/1
f 62/3/1 60/3/1 61/3/1
f 63/3/1 60/3/1 62/3/1
f 66/3/1 65/3/1 64/3/1
f 67/3/1 65/3/1 66/3/1
f 68/3/2 69/3/2 70/3/2
f 70/3/2 69/3/2 71/3/2
f 72/3/2 73/3/2 74/3/2
f 74/3/2 73/3/2 75/3/2
f 75/3/2 73/3/2 76/3/2
f 76/3/2 73/3/2 77/3/2
f 77/3/2 73/3/2 78/3/2
f 79/3/2 80/3/2 81/3/2
f 81/3/2 80/3/2 82/3/2
f 82/3/2 80/3/2 83/3/2
f 84/3/2 85/3/2 87/3/2
f 86/3/2 87/3/2 89/3/2
f 87/3/2 85/3/2 90/3/2
f 89/3/2 87/3/2 90/3/2
f 90/3/2 85/3/2 91/3/2
f 88/3/2 89/3/2 92/3/2
f 89/3/2 90/3/2 92/3/2
f 92/3/2 90/3/2 93/3/2
f 93/3/2 90/3/2 94/3/2
f 92/3/2 93/3/2 95/3/2
f 95/3/2 93/3/2 96/3/2
f 97/2/2 98/2/2 100/2/2
f 98/3/2 99/3/2 101/3/2
f 100/2/2 98/2/2 101/2/2
f 101/3/2 99/3/2 102/3/2
f 102/3/2 99/3/2 103/3/2
f 103/3/2 99/3/2 104/3/2
f 105/3/2 106/3/2 107/3/2
f 107/3/2 106/3/2 108/3/2
f 109/2/2 110/2/2 111/2/2
f 111/2/2 110/2/2 112/2/2
f 113/3/2 114/3/2 116/3/2
f 115/3/2 116/3/2 117/3/2
f 116/3/2 114/3/2 118/3/2
f 117/3/2 116/3/2 118/3/2
f 119/2/2 120/2/2 121/2/2
f 121/2/2 120/2/2 122/2/2
f 123/3/2 124/3/2 125/3/2
f 125/3/2 124/3/2 126/3/2
f 127/2/2 128/2/2 129/2/2
f 129/2/2 128/2/2 130/2/2
f 131/2/2 132/2/2 133/2/2
f 133/2/2 132/2/2 134/2/2
f 140/2/3 136/2/3 135/2/3
f 141/2/3 136/2/3 140/2/3
f 143/3/3 138/3/3 137/3/3
f 144/2/3 140/2/3 139/2/3
f 145/1/3 141/1/3 140/1/3
f 145/2/3 140/2/3 144/2/3
f 146/1/3 141/1/3 145/1/3
f 147/1/3 141/1/3 146/1/3
f 148/2/3 142/2/3 141/2/3
f 148/1/3 141/1/3 147/1/3
f 149/2/3 142/2/3 148/2/3
f 151/1/3 145/1/3 144/1/3
f 151/1/3 146/1/3 145/1/3
f 152/2/3 147/2/3 146/2/3
f 152/1/3 146/1/3 151/1/3
f 153/1/3 149/1/3 148/1/3
f 153/2/3 147/2/3 152/2/3
f 153/1/3 148/1/3 147/1/3
f 154/1/3 149/1/3 153/1/3
f 155/1/3 153/1/3 152/1/3
f 156/1/3 153/1/3 155/1/3
f 157/1/3 155/1/3 152/1/3
f 157/2/3 156/2/3 155/2/3
f 158/1/3 153/1/3 156/1/3
f 158/2/3 156/2/3 157/2/3
f 159/1/3 151/1/3 144/1/3
f 159/2/3 152/2/3 151/2/3
f 160/1/3 158/1/3 157/1/3
f 160/2/3 152/2/3 159/2/3
f 160/1/3 157/1/3 152/1/3
f 161/1/3 153/1/3 158/1/3
f 161/1/3 158/1/3 160/1/3
f 161/2/3 154/2/3 153/2/3
f 162/1/3 149/1/3 154/1/3
f 162/2/3 154/2/3 161/2/3
f 163/3/3 143/3/3 137/3/3
f 163/2/3 144/2/3 143/2/3
f 164/1/3 160/1/3 159/1/3
f 164/2/3 144/2/3 163/2/3
f 164/1/3 159/1/3 144/1/3
f 165/1/3 160/1/3 164/1/3
f 166/2/3 161/2/3 160/2/3
f 166/1/3 160/1/3 165/1/3
f 167/1/3 162/1/3 161/1/3
f 167/2/3 161/2/3 166/2/3
f 168/1/3 149/1/3 162/1/3
f 168/1/3 162/1/3 167/1/3
f 169/2/3 150/2/3 149/2/3
f 169/1/3 149/1/3 168/1/3
f 170/2/3 150/2/3 169/2/3
f 171/3/3 163/3/3 137/3/3
f 172/3/3 163/3/3 171/3/3
f 173/2/3 165/2/3 164/2/3
f 174/1/3 167/1/3 166/1/3
f 174/2/3 165/2/3 173/2/3
f 174/1/3 166/1/3 165/1/3
f 174/1/3 168/1/3 167/1/3
f 175/2/3 169/2/3 168/2/3
f 175/1/3 168/1/3 174/1/3
f 176/2/3 169/2/3 175/2/3
f 177/2/3 175/2/3 174/2/3
f 178/2/3 175/2/3 177/2/3
f 181/3/3 180/3/3 179/3/3
f 182/3/3 180/3/3 181/3/3
f 185/3/3 184/3/3 183/3/3
f 186/3/3 184/3/3 185/3/3
f 189/3/3 188/3/3 187/3/3
f 190/3/3 188/3/3 189/3/3
f 193/3/3 192/3/3 191/3/3
f 194/3/3 192/3/3 193/3/3
f 197/3/3 196/3/3 195/3/3
f 198/3/3 196/3/3 197/3/3
f 199/2/4 200/2/4 202/2/4
f 202/2/4 200/2/4 203/2/4
f 203/2/4 200/2/4 204/2/4
f 204/2/4 200/2/4 205/2/4
f 201/2/4 202/2/4 207/2/4
f 202/1/4 203/1/4 208/1/4
f 207/2/4 202/2/4 208/2/4
f 208/1/4 203/1/4 209/1/4
f 204/1/4 205/1/4 210/1/4
f 205/2/4 206/2/4 211/2/4
f 210/1/4 205/1/4 211/1/4
f 211/2/4 206/2/4 212/2/4
f 211/1/4 212/1/4 221/1/4
f 214/2/4 215/2/4 222/2/4
f 215/1/4 216/1/4 223/1/4
f 222/2/4 215/2/4 223/2/4
f 216/2/4 217/2/4 224/2/4
f 223/1/4 216/1/4 224/1/4
f 217/1/4 218/1/4 225/1/4
f 224/2/4 217/2/4 225/2/4
f 225/1/4 218/1/4 226/1/4
f 219/1/4 220/1/4 227/1/4
f 220/2/4 221/2/4 228/2/4
f 227/1/4 220/1/4 228/1/4
f 221/1/4 212/1/4 229/1/4
f 228/2/4 221/2/4 229/2/4
f 229/1/4 212/1/4 234/1/4
f 212/2/4 213/2/4 235/2/4
f 234/1/4 212/1/4 235/1/4
f 235/2/4 213/2/4 236/2/4
f 230/2/4 231/2/4 237/2/4
f 231/1/4 232/1/4 238/1/4
f 237/2/4 231/2/4 238/2/4
f 238/1/4 232/1/4 239/1/4
f 233/1/4 234/1/4 240/1/4
f 234/2/4 235/2/4 241/2/4
f 240/1/4 234/1/4 241/1/4
f 241/2/4 235/2/4 242/2/4
f 238/2/4 239/2/4 243/2/4
f 239/2/4 240/2/4 243/2/4
f 240/2/4 241/2/4 243/2/4
f 243/2/4 241/2/4 244/2/4
f 245/3/4 246/3/4 249/3/4
f 249/3/4 246/3/4 250/3/4
f 250/3/4 246/3/4 251/3/4
f 247/3/4 248/3/4 252/3/4
f 252/3/4 248/3/4 253/3/4
f 250/3/4 251/3/4 255/3/4
f 253/3/4 254/3/4 255/3/4
f 252/3/4 253/3/4 255/3/4
f 251/3/4 252/3/4 255/3/4
f 255/3/4 254/3/4 256/3/4
f 256/3/4 254/3/4 257/3/4
f 257/3/4 254/3/4 258/3/4
f 256/3/4 257/3/4 259/3/4
f 259/3/4 257/3/4 260/3/4
f 250/3/4 255/3/4 263/3/4
f 261/3/4 262/3/4 264/3/4
f 264/3/4 262/3/4 265/3/4
f 250/3/4 263/3/4 268/3/4
f 265/3/4 266/3/4 268/3/4
f 263/3/4 264/3/4 268/3/4
f 264/3/4 265/3/4 268/3/4
f 268/3/4 266/3/4 269/3/4
f 269/3/4 266/3/4 270/3/4
f 270/3/4 266/3/4 271/3/4
f 271/3/4 266/3/4 272/3/4
f 267/3/4 268/3/4 273/3/4
f 268/3/4 269/3/4 273/3/4
f 273/3/4 269/3/4 274/3/4
f 270/3/4 271/3/4 275/3/4
f 275/3/4 271/3/4 276/3/4
f 277/3/4 278/3/4 279/3/4
f 279/3/4 278/3/4 280/3/4
f 281/3/4 282/3/4 283/3/4
f 283/3/4 282/3/4 284/3/4
f 285/3/4 286/3/4 287/3/4
f 287/3/4 286/3/4 288/3/4
f 293/3/5 290/3/5 289/3/5
f 294/3/5 290/3/5 293/3/5
f 295/3/5 292/3/5 291/3/5
f 296/3/5 292/3/5 295/3/5
f 299/3/5 298/3/5 297/3/5
f 300/3/5 298/3/5 299/3/5
f 303/3/5 302/3/5 301/3/5
f 304/3/5 302/3/5 303/3/5
f 305/3/5 302/3/5 304/3/5
f 306/3/5 302/3/5 305/3/5
f 307/3/5 305/3/5 304/3/5
f 308/3/5 305/3/5 307/3/5
f 313/2/5 310/2/5 309/2/5
f 314/2/5 310/2/5 313/2/5
f 315/2/5 312/2/5 311/2/5
f 316/2/5 312/2/5 315/2/5
f 321/2/5 318/2/5 317/2/5
f 322/2/5 318/2/5 321/2/5
f 323/2/5 320/2/5 319/2/5
f 324/2/5 320/2/5 323/2/5
f 327/3/5 326/3/5 325/3/5
f 328/3/5 326/3/5 327/3/5
f 331/3/5 330/3/5 329/3/5
f 332/3/5 330/3/5 331/3/5
f 339/3/5 334/3/5 333/3/5
f 340/3/5 334/3/5 339/3/5
f 341/3/5 336/3/5 335/3/5
f 342/3/5 336/3/5 341/3/5
f 343/3/5 336/3/5 342/3/5
f 344/3/5 336/3/5 343/3/5
f 345/3/5 338/3/5 337/3/5
f 346/3/5 338/3/5 345/3/5
f 347/3/6 348/3/6 351/3/6
f 349/3/6 350/3/6 354/3/6
f 347/3/6 351/3/6 355/3/6
f 355/3/6 351/3/6 356/3/6
f 352/3/6 353/3/6 357/3/6
f 357/3/6 353/3/6 358/3/6
f 354/3/6 350/3/6 359/3/6
f 359/3/6 350/3/6 360/3/6
f 361/3/6 362/3/6 363/3/6
f 363/3/6 362/3/6 364/3/6
f 365/3/6 366/3/6 367/3/6
f 367/3/6 366/3/6 368/3/6
f 369/3/6 370/3/6 375/3/6
f 375/3/6 370/3/6 376/3/6
f 371/3/6 372/3/6 377/3/6
f 377/3/6 372/3/6 378/3/6
f 378/3/6 372/3/6 379/3/6
f 379/3/6 372/3/6 380/3/6
f 373/3/6 374/3/6 381/3/6
f 381/3/6 374/3/6 382/3/6
f 378/3/6 379/3/6 383/3/6
f 383/3/6 379/3/6 384/3/6
f 385/2/6 386/2/6 389/2/6
f 389/2/6 386/2/6 390/2/6
f 387/2/6 388/2/6 395/2/6
f 395/2/6 388/2/6 396/2/6
f 391/3/6 392/3/6 397/3/6
f 397/3/6 392/3/6 398/3/6
f 393/3/6 394/3/6 399/3/6
f 399/3/6 394/3/6 400/3/6
f 401/2/6 402/2/6 405/2/6
f 405/2/6 402/2/6 406/2/6
f 403/2/6 404/2/6 407/2/6
f 407/2/6 404/2/6 408/2/6
f 409/2/6 410/2/6 411/2/6
f 411/2/6 410/2/6 412/2/6
