# MagicaVoxel @ Ephtracy

# group
o 

# material
mtllib people_2-4.mtl
usemtl palette

# normals
vn -1 0 0
vn 1 0 0
vn 0 0 1
vn 0 0 -1
vn 0 -1 0
vn 0 1 0

# texcoords
vt 0.876953 0.5
vt 0.939453 0.5
vt 0.970703 0.5
vt 0.974609 0.5

# verts
v -0.2 0.3 0
v -0.2 0.3 -0.1
v -0.2 0.4 0
v -0.2 0.4 -0.1
v -0.2 0.6 0.2
v -0.2 0.6 0
v -0.2 0.6 -0.1
v -0.2 0.6 -0.3
v -0.2 0.7 -0.2
v -0.2 0.7 -0.3
v -0.2 0.8 0
v -0.2 0.8 -0.2
v -0.2 0.9 0.2
v -0.2 0.9 0
v -0.2 1.1 0.2
v -0.2 1.1 -0.3
v 0.3 0.3 0
v 0.3 0.3 -0.1
v 0.3 0.4 0
v 0.3 0.4 -0.1
v 0.3 0.6 0.2
v 0.3 0.6 0
v 0.3 0.6 -0.1
v 0.3 0.6 -0.3
v 0.3 0.7 -0.2
v 0.3 0.7 -0.3
v 0.3 0.8 0
v 0.3 0.8 -0.2
v 0.3 0.9 0.2
v 0.3 0.9 0
v 0.3 1.1 0.2
v 0.3 1.1 -0.3
v -0.2 0.6 0.2
v -0.2 0.9 0.2
v -0.2 1.1 0.2
v -0.1 0.8 0.2
v -0.1 0.9 0.2
v -0.1 1 0.2
v 0 0.8 0.2
v 0 0.9 0.2
v 0.1 0.8 0.2
v 0.1 0.9 0.2
v 0.2 0.8 0.2
v 0.2 0.9 0.2
v 0.2 1 0.2
v 0.3 0.6 0.2
v 0.3 0.9 0.2
v 0.3 1.1 0.2
v -0.2 0.3 0
v -0.2 0.4 0
v -0.2 0.6 0
v 0.3 0.3 0
v 0.3 0.4 0
v 0.3 0.6 0
v -0.2 0.3 -0.1
v -0.2 0.4 -0.1
v -0.2 0.6 -0.1
v 0.3 0.3 -0.1
v 0.3 0.4 -0.1
v 0.3 0.6 -0.1
v -0.2 0.6 -0.3
v -0.2 0.7 -0.3
v -0.2 1.1 -0.3
v 0.3 0.6 -0.3
v 0.3 0.7 -0.3
v 0.3 1.1 -0.3
v -0.2 0.3 0
v 0.3 0.3 0
v -0.2 0.3 -0.1
v 0.3 0.3 -0.1
v -0.2 0.6 0.2
v 0.3 0.6 0.2
v -0.2 0.6 0
v 0.3 0.6 0
v -0.2 0.6 -0.1
v 0.3 0.6 -0.1
v -0.2 0.6 -0.3
v 0.3 0.6 -0.3
v -0.2 1.1 0.2
v 0.3 1.1 0.2
v -0.2 1.1 -0.3
v 0.3 1.1 -0.3

# faces
f 3/2/1 2/2/1 1/2/1
f 4/2/1 2/2/1 3/2/1
f 6/1/1 4/1/1 3/1/1
f 7/1/1 4/1/1 6/1/1
f 9/4/1 7/4/1 6/4/1
f 9/4/1 8/4/1 7/4/1
f 9/4/1 6/4/1 5/4/1
f 10/4/1 8/4/1 9/4/1
f 11/4/1 9/4/1 5/4/1
f 12/3/1 10/3/1 9/3/1
f 12/4/1 9/4/1 11/4/1
f 13/4/1 11/4/1 5/4/1
f 14/3/1 12/3/1 11/3/1
f 14/4/1 11/4/1 13/4/1
f 15/3/1 14/3/1 13/3/1
f 16/3/1 10/3/1 12/3/1
f 16/3/1 14/3/1 15/3/1
f 16/3/1 12/3/1 14/3/1
f 17/2/2 18/2/2 19/2/2
f 19/2/2 18/2/2 20/2/2
f 19/1/2 20/1/2 22/1/2
f 22/1/2 20/1/2 23/1/2
f 22/4/2 23/4/2 25/4/2
f 23/4/2 24/4/2 25/4/2
f 21/4/2 22/4/2 25/4/2
f 25/4/2 24/4/2 26/4/2
f 21/4/2 25/4/2 27/4/2
f 25/3/2 26/3/2 28/3/2
f 27/4/2 25/4/2 28/4/2
f 21/4/2 27/4/2 29/4/2
f 27/3/2 28/3/2 30/3/2
f 29/4/2 27/4/2 30/4/2
f 29/3/2 30/3/2 31/3/2
f 28/3/2 26/3/2 32/3/2
f 31/3/2 30/3/2 32/3/2
f 30/3/2 28/3/2 32/3/2
f 36/4/3 34/4/3 33/4/3
f 37/3/3 35/3/3 34/3/3
f 37/4/3 34/4/3 36/4/3
f 38/3/3 35/3/3 37/3/3
f 39/4/3 36/4/3 33/4/3
f 39/3/3 37/3/3 36/3/3
f 40/4/3 38/4/3 37/4/3
f 40/3/3 37/3/3 39/3/3
f 41/4/3 39/4/3 33/4/3
f 41/4/3 40/4/3 39/4/3
f 42/4/3 38/4/3 40/4/3
f 42/4/3 40/4/3 41/4/3
f 43/4/3 41/4/3 33/4/3
f 43/3/3 42/3/3 41/3/3
f 44/4/3 38/4/3 42/4/3
f 44/3/3 42/3/3 43/3/3
f 45/3/3 35/3/3 38/3/3
f 45/4/3 38/4/3 44/4/3
f 46/4/3 44/4/3 43/4/3
f 46/4/3 43/4/3 33/4/3
f 47/3/3 45/3/3 44/3/3
f 47/4/3 44/4/3 46/4/3
f 48/3/3 35/3/3 45/3/3
f 48/3/3 45/3/3 47/3/3
f 52/2/3 50/2/3 49/2/3
f 53/1/3 51/1/3 50/1/3
f 53/2/3 50/2/3 52/2/3
f 54/1/3 51/1/3 53/1/3
f 55/2/4 56/2/4 58/2/4
f 56/1/4 57/1/4 59/1/4
f 58/2/4 56/2/4 59/2/4
f 59/1/4 57/1/4 60/1/4
f 61/4/4 62/4/4 64/4/4
f 62/3/4 63/3/4 65/3/4
f 64/4/4 62/4/4 65/4/4
f 65/3/4 63/3/4 66/3/4
f 69/2/5 68/2/5 67/2/5
f 70/2/5 68/2/5 69/2/5
f 73/4/5 72/4/5 71/4/5
f 74/4/5 72/4/5 73/4/5
f 77/4/5 76/4/5 75/4/5
f 78/4/5 76/4/5 77/4/5
f 79/3/6 80/3/6 81/3/6
f 81/3/6 80/3/6 82/3/6
