# MagicaVoxel @ Ephtracy

# group
o 

# material
mtllib ladder.mtl
usemtl palette

# normals
vn -1 0 0
vn 1 0 0
vn 0 0 1
vn 0 0 -1
vn 0 -1 0
vn 0 1 0

# texcoords
vt 0.908203 0.5
vt 0.939453 0.5
vt 0.970703 0.5

# verts
v -0.4 0 0
v -0.4 0 -0.1
v -0.4 0.1 0
v -0.4 0.1 -0.1
v -0.4 3.8 0
v -0.4 3.8 -0.1
v -0.4 3.9 0
v -0.4 3.9 -0.1
v 0.3 0 0
v 0.3 0 -0.1
v 0.3 0.1 0
v 0.3 0.1 -0.1
v 0.3 0.3 0
v 0.3 0.3 -0.1
v 0.3 0.4 0
v 0.3 0.4 -0.1
v 0.3 0.7 0
v 0.3 0.7 -0.1
v 0.3 0.8 0
v 0.3 0.8 -0.1
v 0.3 1.1 0
v 0.3 1.1 -0.1
v 0.3 1.2 0
v 0.3 1.2 -0.1
v 0.3 1.5 0
v 0.3 1.5 -0.1
v 0.3 1.6 0
v 0.3 1.6 -0.1
v 0.3 1.9 0
v 0.3 1.9 -0.1
v 0.3 2 0
v 0.3 2 -0.1
v 0.3 2.3 0
v 0.3 2.3 -0.1
v 0.3 2.4 0
v 0.3 2.4 -0.1
v 0.3 2.7 0
v 0.3 2.7 -0.1
v 0.3 2.8 0
v 0.3 2.8 -0.1
v 0.3 3.1 0
v 0.3 3.1 -0.1
v 0.3 3.2 0
v 0.3 3.2 -0.1
v 0.3 3.5 0
v 0.3 3.5 -0.1
v 0.3 3.6 0
v 0.3 3.6 -0.1
v 0.3 3.8 0
v 0.3 3.8 -0.1
v 0.3 3.9 0
v 0.3 3.9 -0.1
v -0.3 0 0
v -0.3 0 -0.1
v -0.3 0.1 0
v -0.3 0.1 -0.1
v -0.3 0.3 0
v -0.3 0.3 -0.1
v -0.3 0.4 0
v -0.3 0.4 -0.1
v -0.3 0.7 0
v -0.3 0.7 -0.1
v -0.3 0.8 0
v -0.3 0.8 -0.1
v -0.3 1.1 0
v -0.3 1.1 -0.1
v -0.3 1.2 0
v -0.3 1.2 -0.1
v -0.3 1.5 0
v -0.3 1.5 -0.1
v -0.3 1.6 0
v -0.3 1.6 -0.1
v -0.3 1.9 0
v -0.3 1.9 -0.1
v -0.3 2 0
v -0.3 2 -0.1
v -0.3 2.3 0
v -0.3 2.3 -0.1
v -0.3 2.4 0
v -0.3 2.4 -0.1
v -0.3 2.7 0
v -0.3 2.7 -0.1
v -0.3 2.8 0
v -0.3 2.8 -0.1
v -0.3 3.1 0
v -0.3 3.1 -0.1
v -0.3 3.2 0
v -0.3 3.2 -0.1
v -0.3 3.5 0
v -0.3 3.5 -0.1
v -0.3 3.6 0
v -0.3 3.6 -0.1
v -0.3 3.8 0
v -0.3 3.8 -0.1
v -0.3 3.9 0
v -0.3 3.9 -0.1
v 0.4 0 0
v 0.4 0 -0.1
v 0.4 0.1 0
v 0.4 0.1 -0.1
v 0.4 3.8 0
v 0.4 3.8 -0.1
v 0.4 3.9 0
v 0.4 3.9 -0.1
v -0.4 0 0
v -0.4 0.1 0
v -0.4 3.8 0
v -0.4 3.9 0
v -0.3 0 0
v -0.3 0.1 0
v -0.3 0.3 0
v -0.3 0.4 0
v -0.3 0.7 0
v -0.3 0.8 0
v -0.3 1.1 0
v -0.3 1.2 0
v -0.3 1.5 0
v -0.3 1.6 0
v -0.3 1.9 0
v -0.3 2 0
v -0.3 2.3 0
v -0.3 2.4 0
v -0.3 2.7 0
v -0.3 2.8 0
v -0.3 3.1 0
v -0.3 3.2 0
v -0.3 3.5 0
v -0.3 3.6 0
v -0.3 3.8 0
v -0.3 3.9 0
v 0.3 0 0
v 0.3 0.1 0
v 0.3 0.3 0
v 0.3 0.4 0
v 0.3 0.7 0
v 0.3 0.8 0
v 0.3 1.1 0
v 0.3 1.2 0
v 0.3 1.5 0
v 0.3 1.6 0
v 0.3 1.9 0
v 0.3 2 0
v 0.3 2.3 0
v 0.3 2.4 0
v 0.3 2.7 0
v 0.3 2.8 0
v 0.3 3.1 0
v 0.3 3.2 0
v 0.3 3.5 0
v 0.3 3.6 0
v 0.3 3.8 0
v 0.3 3.9 0
v 0.4 0 0
v 0.4 0.1 0
v 0.4 3.8 0
v 0.4 3.9 0
v -0.4 0 -0.1
v -0.4 0.1 -0.1
v -0.4 3.8 -0.1
v -0.4 3.9 -0.1
v -0.3 0 -0.1
v -0.3 0.1 -0.1
v -0.3 0.3 -0.1
v -0.3 0.4 -0.1
v -0.3 0.7 -0.1
v -0.3 0.8 -0.1
v -0.3 1.1 -0.1
v -0.3 1.2 -0.1
v -0.3 1.5 -0.1
v -0.3 1.6 -0.1
v -0.3 1.9 -0.1
v -0.3 2 -0.1
v -0.3 2.3 -0.1
v -0.3 2.4 -0.1
v -0.3 2.7 -0.1
v -0.3 2.8 -0.1
v -0.3 3.1 -0.1
v -0.3 3.2 -0.1
v -0.3 3.5 -0.1
v -0.3 3.6 -0.1
v -0.3 3.8 -0.1
v -0.3 3.9 -0.1
v 0.3 0 -0.1
v 0.3 0.1 -0.1
v 0.3 0.3 -0.1
v 0.3 0.4 -0.1
v 0.3 0.7 -0.1
v 0.3 0.8 -0.1
v 0.3 1.1 -0.1
v 0.3 1.2 -0.1
v 0.3 1.5 -0.1
v 0.3 1.6 -0.1
v 0.3 1.9 -0.1
v 0.3 2 -0.1
v 0.3 2.3 -0.1
v 0.3 2.4 -0.1
v 0.3 2.7 -0.1
v 0.3 2.8 -0.1
v 0.3 3.1 -0.1
v 0.3 3.2 -0.1
v 0.3 3.5 -0.1
v 0.3 3.6 -0.1
v 0.3 3.8 -0.1
v 0.3 3.9 -0.1
v 0.4 0 -0.1
v 0.4 0.1 -0.1
v 0.4 3.8 -0.1
v 0.4 3.9 -0.1
v -0.4 0 0
v -0.3 0 0
v 0.3 0 0
v 0.4 0 0
v -0.4 0 -0.1
v -0.3 0 -0.1
v 0.3 0 -0.1
v 0.4 0 -0.1
v -0.3 0.3 0
v 0.3 0.3 0
v -0.3 0.3 -0.1
v 0.3 0.3 -0.1
v -0.3 0.7 0
v 0.3 0.7 0
v -0.3 0.7 -0.1
v 0.3 0.7 -0.1
v -0.3 1.1 0
v 0.3 1.1 0
v -0.3 1.1 -0.1
v 0.3 1.1 -0.1
v -0.3 1.5 0
v 0.3 1.5 0
v -0.3 1.5 -0.1
v 0.3 1.5 -0.1
v -0.3 1.9 0
v 0.3 1.9 0
v -0.3 1.9 -0.1
v 0.3 1.9 -0.1
v -0.3 2.3 0
v 0.3 2.3 0
v -0.3 2.3 -0.1
v 0.3 2.3 -0.1
v -0.3 2.7 0
v 0.3 2.7 0
v -0.3 2.7 -0.1
v 0.3 2.7 -0.1
v -0.3 3.1 0
v 0.3 3.1 0
v -0.3 3.1 -0.1
v 0.3 3.1 -0.1
v -0.3 3.5 0
v 0.3 3.5 0
v -0.3 3.5 -0.1
v 0.3 3.5 -0.1
v -0.3 0.4 0
v 0.3 0.4 0
v -0.3 0.4 -0.1
v 0.3 0.4 -0.1
v -0.3 0.8 0
v 0.3 0.8 0
v -0.3 0.8 -0.1
v 0.3 0.8 -0.1
v -0.3 1.2 0
v 0.3 1.2 0
v -0.3 1.2 -0.1
v 0.3 1.2 -0.1
v -0.3 1.6 0
v 0.3 1.6 0
v -0.3 1.6 -0.1
v 0.3 1.6 -0.1
v -0.3 2 0
v 0.3 2 0
v -0.3 2 -0.1
v 0.3 2 -0.1
v -0.3 2.4 0
v 0.3 2.4 0
v -0.3 2.4 -0.1
v 0.3 2.4 -0.1
v -0.3 2.8 0
v 0.3 2.8 0
v -0.3 2.8 -0.1
v 0.3 2.8 -0.1
v -0.3 3.2 0
v 0.3 3.2 0
v -0.3 3.2 -0.1
v 0.3 3.2 -0.1
v -0.3 3.6 0
v 0.3 3.6 0
v -0.3 3.6 -0.1
v 0.3 3.6 -0.1
v -0.4 3.9 0
v -0.3 3.9 0
v 0.3 3.9 0
v 0.4 3.9 0
v -0.4 3.9 -0.1
v -0.3 3.9 -0.1
v 0.3 3.9 -0.1
v 0.4 3.9 -0.1

# faces
f 3/2/1 2/2/1 1/2/1
f 4/2/1 2/2/1 3/2/1
f 5/3/1 4/3/1 3/3/1
f 6/3/1 4/3/1 5/3/1
f 7/2/1 6/2/1 5/2/1
f 8/2/1 6/2/1 7/2/1
f 11/2/1 10/2/1 9/2/1
f 12/2/1 10/2/1 11/2/1
f 13/3/1 12/3/1 11/3/1
f 14/3/1 12/3/1 13/3/1
f 17/3/1 16/3/1 15/3/1
f 18/3/1 16/3/1 17/3/1
f 21/3/1 20/3/1 19/3/1
f 22/3/1 20/3/1 21/3/1
f 25/3/1 24/3/1 23/3/1
f 26/3/1 24/3/1 25/3/1
f 29/3/1 28/3/1 27/3/1
f 30/3/1 28/3/1 29/3/1
f 33/3/1 32/3/1 31/3/1
f 34/3/1 32/3/1 33/3/1
f 37/3/1 36/3/1 35/3/1
f 38/3/1 36/3/1 37/3/1
f 41/3/1 40/3/1 39/3/1
f 42/3/1 40/3/1 41/3/1
f 45/3/1 44/3/1 43/3/1
f 46/3/1 44/3/1 45/3/1
f 49/3/1 48/3/1 47/3/1
f 50/3/1 48/3/1 49/3/1
f 51/2/1 50/2/1 49/2/1
f 52/2/1 50/2/1 51/2/1
f 53/2/2 54/2/2 55/2/2
f 55/2/2 54/2/2 56/2/2
f 55/3/2 56/3/2 57/3/2
f 57/3/2 56/3/2 58/3/2
f 59/3/2 60/3/2 61/3/2
f 61/3/2 60/3/2 62/3/2
f 63/3/2 64/3/2 65/3/2
f 65/3/2 64/3/2 66/3/2
f 67/3/2 68/3/2 69/3/2
f 69/3/2 68/3/2 70/3/2
f 71/3/2 72/3/2 73/3/2
f 73/3/2 72/3/2 74/3/2
f 75/3/2 76/3/2 77/3/2
f 77/3/2 76/3/2 78/3/2
f 79/3/2 80/3/2 81/3/2
f 81/3/2 80/3/2 82/3/2
f 83/3/2 84/3/2 85/3/2
f 85/3/2 84/3/2 86/3/2
f 87/3/2 88/3/2 89/3/2
f 89/3/2 88/3/2 90/3/2
f 91/3/2 92/3/2 93/3/2
f 93/3/2 92/3/2 94/3/2
f 93/2/2 94/2/2 95/2/2
f 95/2/2 94/2/2 96/2/2
f 97/2/2 98/2/2 99/2/2
f 99/2/2 98/2/2 100/2/2
f 99/3/2 100/3/2 101/3/2
f 101/3/2 100/3/2 102/3/2
f 101/2/2 102/2/2 103/2/2
f 103/2/2 102/2/2 104/2/2
f 109/2/3 106/2/3 105/2/3
f 110/3/3 107/3/3 106/3/3
f 110/2/3 106/2/3 109/2/3
f 111/3/3 107/3/3 110/3/3
f 112/3/3 107/3/3 111/3/3
f 113/3/3 107/3/3 112/3/3
f 114/3/3 107/3/3 113/3/3
f 115/3/3 107/3/3 114/3/3
f 116/3/3 107/3/3 115/3/3
f 117/3/3 107/3/3 116/3/3
f 118/3/3 107/3/3 117/3/3
f 119/3/3 107/3/3 118/3/3
f 120/3/3 107/3/3 119/3/3
f 121/3/3 107/3/3 120/3/3
f 122/3/3 107/3/3 121/3/3
f 123/3/3 107/3/3 122/3/3
f 124/3/3 107/3/3 123/3/3
f 125/3/3 107/3/3 124/3/3
f 126/3/3 107/3/3 125/3/3
f 127/3/3 107/3/3 126/3/3
f 128/3/3 107/3/3 127/3/3
f 129/2/3 108/2/3 107/2/3
f 129/3/3 107/3/3 128/3/3
f 130/2/3 108/2/3 129/2/3
f 133/1/3 112/1/3 111/1/3
f 134/1/3 112/1/3 133/1/3
f 135/1/3 114/1/3 113/1/3
f 136/1/3 114/1/3 135/1/3
f 137/1/3 116/1/3 115/1/3
f 138/1/3 116/1/3 137/1/3
f 139/1/3 118/1/3 117/1/3
f 140/1/3 118/1/3 139/1/3
f 141/1/3 120/1/3 119/1/3
f 142/1/3 120/1/3 141/1/3
f 143/1/3 122/1/3 121/1/3
f 144/1/3 122/1/3 143/1/3
f 145/1/3 124/1/3 123/1/3
f 146/1/3 124/1/3 145/1/3
f 147/1/3 126/1/3 125/1/3
f 148/1/3 126/1/3 147/1/3
f 149/1/3 128/1/3 127/1/3
f 150/1/3 128/1/3 149/1/3
f 153/2/3 132/2/3 131/2/3
f 154/3/3 148/3/3 147/3/3
f 154/2/3 132/2/3 153/2/3
f 154/3/3 146/3/3 145/3/3
f 154/3/3 151/3/3 150/3/3
f 154/3/3 150/3/3 149/3/3
f 154/3/3 149/3/3 148/3/3
f 154/3/3 144/3/3 143/3/3
f 154/3/3 147/3/3 146/3/3
f 154/3/3 134/3/3 133/3/3
f 154/3/3 145/3/3 144/3/3
f 154/3/3 142/3/3 141/3/3
f 154/3/3 143/3/3 142/3/3
f 154/3/3 136/3/3 135/3/3
f 154/3/3 141/3/3 140/3/3
f 154/3/3 140/3/3 139/3/3
f 154/3/3 139/3/3 138/3/3
f 154/3/3 138/3/3 137/3/3
f 154/3/3 137/3/3 136/3/3
f 154/3/3 133/3/3 132/3/3
f 154/3/3 135/3/3 134/3/3
f 155/2/3 152/2/3 151/2/3
f 155/3/3 151/3/3 154/3/3
f 156/2/3 152/2/3 155/2/3
f 157/2/4 158/2/4 161/2/4
f 158/3/4 159/3/4 162/3/4
f 161/2/4 158/2/4 162/2/4
f 162/3/4 159/3/4 163/3/4
f 163/3/4 159/3/4 164/3/4
f 164/3/4 159/3/4 165/3/4
f 165/3/4 159/3/4 166/3/4
f 166/3/4 159/3/4 167/3/4
f 167/3/4 159/3/4 168/3/4
f 168/3/4 159/3/4 169/3/4
f 169/3/4 159/3/4 170/3/4
f 170/3/4 159/3/4 171/3/4
f 171/3/4 159/3/4 172/3/4
f 172/3/4 159/3/4 173/3/4
f 173/3/4 159/3/4 174/3/4
f 174/3/4 159/3/4 175/3/4
f 175/3/4 159/3/4 176/3/4
f 176/3/4 159/3/4 177/3/4
f 177/3/4 159/3/4 178/3/4
f 178/3/4 159/3/4 179/3/4
f 179/3/4 159/3/4 180/3/4
f 159/2/4 160/2/4 181/2/4
f 180/3/4 159/3/4 181/3/4
f 181/2/4 160/2/4 182/2/4
f 163/1/4 164/1/4 185/1/4
f 185/1/4 164/1/4 186/1/4
f 165/1/4 166/1/4 187/1/4
f 187/1/4 166/1/4 188/1/4
f 167/1/4 168/1/4 189/1/4
f 189/1/4 168/1/4 190/1/4
f 169/1/4 170/1/4 191/1/4
f 191/1/4 170/1/4 192/1/4
f 171/1/4 172/1/4 193/1/4
f 193/1/4 172/1/4 194/1/4
f 173/1/4 174/1/4 195/1/4
f 195/1/4 174/1/4 196/1/4
f 175/1/4 176/1/4 197/1/4
f 197/1/4 176/1/4 198/1/4
f 177/1/4 178/1/4 199/1/4
f 199/1/4 178/1/4 200/1/4
f 179/1/4 180/1/4 201/1/4
f 201/1/4 180/1/4 202/1/4
f 183/2/4 184/2/4 205/2/4
f 199/3/4 200/3/4 206/3/4
f 205/2/4 184/2/4 206/2/4
f 197/3/4 198/3/4 206/3/4
f 202/3/4 203/3/4 206/3/4
f 201/3/4 202/3/4 206/3/4
f 200/3/4 201/3/4 206/3/4
f 195/3/4 196/3/4 206/3/4
f 198/3/4 199/3/4 206/3/4
f 185/3/4 186/3/4 206/3/4
f 196/3/4 197/3/4 206/3/4
f 193/3/4 194/3/4 206/3/4
f 194/3/4 195/3/4 206/3/4
f 187/3/4 188/3/4 206/3/4
f 192/3/4 193/3/4 206/3/4
f 191/3/4 192/3/4 206/3/4
f 190/3/4 191/3/4 206/3/4
f 189/3/4 190/3/4 206/3/4
f 188/3/4 189/3/4 206/3/4
f 184/3/4 185/3/4 206/3/4
f 186/3/4 187/3/4 206/3/4
f 203/2/4 204/2/4 207/2/4
f 206/3/4 203/3/4 207/3/4
f 207/2/4 204/2/4 208/2/4
f 213/2/5 210/2/5 209/2/5
f 214/2/5 210/2/5 213/2/5
f 215/2/5 212/2/5 211/2/5
f 216/2/5 212/2/5 215/2/5
f 219/1/5 218/1/5 217/1/5
f 220/1/5 218/1/5 219/1/5
f 223/1/5 222/1/5 221/1/5
f 224/1/5 222/1/5 223/1/5
f 227/1/5 226/1/5 225/1/5
f 228/1/5 226/1/5 227/1/5
f 231/1/5 230/1/5 229/1/5
f 232/1/5 230/1/5 231/1/5
f 235/1/5 234/1/5 233/1/5
f 236/1/5 234/1/5 235/1/5
f 239/1/5 238/1/5 237/1/5
f 240/1/5 238/1/5 239/1/5
f 243/1/5 242/1/5 241/1/5
f 244/1/5 242/1/5 243/1/5
f 247/1/5 246/1/5 245/1/5
f 248/1/5 246/1/5 247/1/5
f 251/1/5 250/1/5 249/1/5
f 252/1/5 250/1/5 251/1/5
f 253/1/6 254/1/6 255/1/6
f 255/1/6 254/1/6 256/1/6
f 257/1/6 258/1/6 259/1/6
f 259/1/6 258/1/6 260/1/6
f 261/1/6 262/1/6 263/1/6
f 263/1/6 262/1/6 264/1/6
f 265/1/6 266/1/6 267/1/6
f 267/1/6 266/1/6 268/1/6
f 269/1/6 270/1/6 271/1/6
f 271/1/6 270/1/6 272/1/6
f 273/1/6 274/1/6 275/1/6
f 275/1/6 274/1/6 276/1/6
f 277/1/6 278/1/6 279/1/6
f 279/1/6 278/1/6 280/1/6
f 281/1/6 282/1/6 283/1/6
f 283/1/6 282/1/6 284/1/6
f 285/1/6 286/1/6 287/1/6
f 287/1/6 286/1/6 288/1/6
f 289/2/6 290/2/6 293/2/6
f 293/2/6 290/2/6 294/2/6
f 291/2/6 292/2/6 295/2/6
f 295/2/6 292/2/6 296/2/6
