# MagicaVoxel @ Ephtracy

# group
o 

# material
mtllib people_3-4.mtl
usemtl palette

# normals
vn -1 0 0
vn 1 0 0
vn 0 0 1
vn 0 0 -1
vn 0 -1 0
vn 0 1 0

# texcoords
vt 0.939453 0.5
vt 0.943359 0.5
vt 0.970703 0.5
vt 0.974609 0.5
vt 0.978516 0.5

# verts
v -0.2 0.3 0
v -0.2 0.3 -0.1
v -0.2 0.4 0
v -0.2 0.4 -0.1
v -0.2 0.5 0
v -0.2 0.5 -0.1
v -0.2 0.6 0.2
v -0.2 0.6 0.1
v -0.2 0.6 0
v -0.2 0.6 -0.1
v -0.2 0.6 -0.2
v -0.2 0.6 -0.3
v -0.2 0.7 0.2
v -0.2 0.7 0.1
v -0.2 0.7 0
v -0.2 0.7 -0.1
v -0.2 0.7 -0.2
v -0.2 0.7 -0.3
v -0.2 0.8 0.1
v -0.2 0.8 0
v -0.2 0.8 -0.1
v -0.2 0.8 -0.2
v -0.2 0.8 -0.3
v -0.2 0.9 0.1
v -0.2 0.9 0
v -0.2 0.9 -0.1
v -0.2 0.9 -0.2
v -0.2 0.9 -0.3
v -0.2 1 0.2
v -0.2 1 0.1
v -0.2 1 0
v -0.2 1 -0.1
v -0.2 1 -0.2
v -0.2 1 -0.3
v -0.2 1.1 0.2
v -0.2 1.1 0.1
v -0.2 1.1 0
v -0.2 1.1 -0.1
v -0.2 1.1 -0.2
v -0.2 1.1 -0.3
v 0 1.1 0
v 0 1.1 -0.1
v 0 1.2 0
v 0 1.2 -0.1
v 0.1 1.1 0
v 0.1 1.1 -0.1
v 0.1 1.2 0
v 0.1 1.2 -0.1
v 0.3 0.3 0
v 0.3 0.3 -0.1
v 0.3 0.4 0
v 0.3 0.4 -0.1
v 0.3 0.5 0
v 0.3 0.5 -0.1
v 0.3 0.6 0.2
v 0.3 0.6 0.1
v 0.3 0.6 0
v 0.3 0.6 -0.1
v 0.3 0.6 -0.2
v 0.3 0.6 -0.3
v 0.3 0.7 0.2
v 0.3 0.7 0.1
v 0.3 0.7 0
v 0.3 0.7 -0.1
v 0.3 0.7 -0.2
v 0.3 0.7 -0.3
v 0.3 0.8 0.1
v 0.3 0.8 0
v 0.3 0.8 -0.1
v 0.3 0.8 -0.2
v 0.3 0.8 -0.3
v 0.3 0.9 0.1
v 0.3 0.9 0
v 0.3 0.9 -0.1
v 0.3 0.9 -0.2
v 0.3 0.9 -0.3
v 0.3 1 0.2
v 0.3 1 0.1
v 0.3 1 0
v 0.3 1 -0.1
v 0.3 1 -0.2
v 0.3 1 -0.3
v 0.3 1.1 0.2
v 0.3 1.1 0.1
v 0.3 1.1 0
v 0.3 1.1 -0.1
v 0.3 1.1 -0.2
v 0.3 1.1 -0.3
v -0.2 0.6 0.2
v -0.2 0.7 0.2
v -0.2 1 0.2
v -0.2 1.1 0.2
v -0.1 0.6 0.2
v -0.1 0.7 0.2
v -0.1 0.8 0.2
v -0.1 0.9 0.2
v -0.1 1 0.2
v -0.1 1.1 0.2
v 0 0.6 0.2
v 0 0.7 0.2
v 0 0.8 0.2
v 0 0.9 0.2
v 0 1 0.2
v 0 1.1 0.2
v 0.1 0.6 0.2
v 0.1 0.7 0.2
v 0.1 0.8 0.2
v 0.1 0.9 0.2
v 0.1 1 0.2
v 0.1 1.1 0.2
v 0.2 0.6 0.2
v 0.2 0.7 0.2
v 0.2 0.8 0.2
v 0.2 0.9 0.2
v 0.2 1 0.2
v 0.2 1.1 0.2
v 0.3 0.6 0.2
v 0.3 0.7 0.2
v 0.3 1 0.2
v 0.3 1.1 0.2
v -0.2 0.3 0
v -0.2 0.4 0
v -0.2 0.5 0
v -0.2 0.6 0
v -0.1 0.3 0
v -0.1 0.4 0
v -0.1 0.5 0
v -0.1 0.6 0
v 0 0.3 0
v 0 0.4 0
v 0 0.5 0
v 0 0.6 0
v 0 1.1 0
v 0 1.2 0
v 0.1 0.3 0
v 0.1 0.4 0
v 0.1 0.5 0
v 0.1 0.6 0
v 0.1 1.1 0
v 0.1 1.2 0
v 0.2 0.3 0
v 0.2 0.4 0
v 0.2 0.5 0
v 0.2 0.6 0
v 0.3 0.3 0
v 0.3 0.4 0
v 0.3 0.5 0
v 0.3 0.6 0
v -0.2 0.3 -0.1
v -0.2 0.4 -0.1
v -0.2 0.5 -0.1
v -0.2 0.6 -0.1
v -0.1 0.3 -0.1
v -0.1 0.4 -0.1
v -0.1 0.5 -0.1
v -0.1 0.6 -0.1
v 0 0.3 -0.1
v 0 0.4 -0.1
v 0 0.5 -0.1
v 0 0.6 -0.1
v 0 1.1 -0.1
v 0 1.2 -0.1
v 0.1 0.3 -0.1
v 0.1 0.4 -0.1
v 0.1 0.5 -0.1
v 0.1 0.6 -0.1
v 0.1 1.1 -0.1
v 0.1 1.2 -0.1
v 0.2 0.3 -0.1
v 0.2 0.4 -0.1
v 0.2 0.5 -0.1
v 0.2 0.6 -0.1
v 0.3 0.3 -0.1
v 0.3 0.4 -0.1
v 0.3 0.5 -0.1
v 0.3 0.6 -0.1
v -0.2 0.6 -0.3
v -0.2 0.7 -0.3
v -0.2 0.8 -0.3
v -0.2 0.9 -0.3
v -0.2 1 -0.3
v -0.2 1.1 -0.3
v -0.1 0.6 -0.3
v -0.1 0.7 -0.3
v -0.1 0.8 -0.3
v -0.1 0.9 -0.3
v -0.1 1 -0.3
v -0.1 1.1 -0.3
v 0 0.6 -0.3
v 0 0.7 -0.3
v 0 0.8 -0.3
v 0 0.9 -0.3
v 0 1 -0.3
v 0 1.1 -0.3
v 0.1 0.6 -0.3
v 0.1 0.7 -0.3
v 0.1 0.8 -0.3
v 0.1 0.9 -0.3
v 0.1 1 -0.3
v 0.1 1.1 -0.3
v 0.2 0.6 -0.3
v 0.2 0.7 -0.3
v 0.2 0.8 -0.3
v 0.2 0.9 -0.3
v 0.2 1 -0.3
v 0.2 1.1 -0.3
v 0.3 0.6 -0.3
v 0.3 0.7 -0.3
v 0.3 0.8 -0.3
v 0.3 0.9 -0.3
v 0.3 1 -0.3
v 0.3 1.1 -0.3
v -0.2 0.3 0
v -0.1 0.3 0
v 0 0.3 0
v 0.1 0.3 0
v 0.2 0.3 0
v 0.3 0.3 0
v -0.2 0.3 -0.1
v -0.1 0.3 -0.1
v 0 0.3 -0.1
v 0.1 0.3 -0.1
v 0.2 0.3 -0.1
v 0.3 0.3 -0.1
v -0.2 0.6 0.2
v -0.1 0.6 0.2
v 0 0.6 0.2
v 0.1 0.6 0.2
v 0.2 0.6 0.2
v 0.3 0.6 0.2
v -0.2 0.6 0.1
v -0.1 0.6 0.1
v 0 0.6 0.1
v 0.1 0.6 0.1
v 0.2 0.6 0.1
v 0.3 0.6 0.1
v -0.2 0.6 0
v -0.1 0.6 0
v 0 0.6 0
v 0.1 0.6 0
v 0.2 0.6 0
v 0.3 0.6 0
v -0.2 0.6 -0.1
v -0.1 0.6 -0.1
v 0 0.6 -0.1
v 0.1 0.6 -0.1
v 0.2 0.6 -0.1
v 0.3 0.6 -0.1
v -0.2 0.6 -0.2
v -0.1 0.6 -0.2
v 0 0.6 -0.2
v 0.1 0.6 -0.2
v 0.2 0.6 -0.2
v 0.3 0.6 -0.2
v -0.2 0.6 -0.3
v -0.1 0.6 -0.3
v 0 0.6 -0.3
v 0.1 0.6 -0.3
v 0.2 0.6 -0.3
v 0.3 0.6 -0.3
v -0.2 1.1 0.2
v -0.1 1.1 0.2
v 0 1.1 0.2
v 0.1 1.1 0.2
v 0.2 1.1 0.2
v 0.3 1.1 0.2
v -0.2 1.1 0.1
v -0.1 1.1 0.1
v 0 1.1 0.1
v 0.1 1.1 0.1
v 0.2 1.1 0.1
v 0.3 1.1 0.1
v -0.2 1.1 0
v -0.1 1.1 0
v 0 1.1 0
v 0.1 1.1 0
v 0.2 1.1 0
v 0.3 1.1 0
v -0.2 1.1 -0.1
v -0.1 1.1 -0.1
v 0 1.1 -0.1
v 0.1 1.1 -0.1
v 0.2 1.1 -0.1
v 0.3 1.1 -0.1
v -0.2 1.1 -0.2
v -0.1 1.1 -0.2
v 0 1.1 -0.2
v 0.1 1.1 -0.2
v 0.2 1.1 -0.2
v 0.3 1.1 -0.2
v -0.2 1.1 -0.3
v -0.1 1.1 -0.3
v 0 1.1 -0.3
v 0.1 1.1 -0.3
v 0.2 1.1 -0.3
v 0.3 1.1 -0.3
v 0 1.2 0
v 0.1 1.2 0
v 0 1.2 -0.1
v 0.1 1.2 -0.1

# faces
f 3/5/1 2/5/1 1/5/1
f 4/5/1 2/5/1 3/5/1
f 5/1/1 4/1/1 3/1/1
f 6/1/1 4/1/1 5/1/1
f 9/5/1 6/5/1 5/5/1
f 10/5/1 6/5/1 9/5/1
f 13/5/1 8/5/1 7/5/1
f 14/1/1 9/1/1 8/1/1
f 14/5/1 8/5/1 13/5/1
f 15/5/1 10/5/1 9/5/1
f 15/1/1 9/1/1 14/1/1
f 16/1/1 11/1/1 10/1/1
f 16/5/1 10/5/1 15/5/1
f 17/5/1 12/5/1 11/5/1
f 17/1/1 11/1/1 16/1/1
f 18/5/1 12/5/1 17/5/1
f 19/4/1 14/4/1 13/4/1
f 19/5/1 15/5/1 14/5/1
f 20/1/1 16/1/1 15/1/1
f 20/5/1 15/5/1 19/5/1
f 21/5/1 17/5/1 16/5/1
f 21/1/1 16/1/1 20/1/1
f 22/1/1 18/1/1 17/1/1
f 22/5/1 17/5/1 21/5/1
f 23/1/1 18/1/1 22/1/1
f 24/4/1 19/4/1 13/4/1
f 24/4/1 20/4/1 19/4/1
f 25/5/1 21/5/1 20/5/1
f 25/4/1 20/4/1 24/4/1
f 26/1/1 22/1/1 21/1/1
f 26/5/1 21/5/1 25/5/1
f 27/5/1 23/5/1 22/5/1
f 27/1/1 22/1/1 26/1/1
f 28/5/1 23/5/1 27/5/1
f 29/4/1 24/4/1 13/4/1
f 30/5/1 25/5/1 24/5/1
f 30/4/1 24/4/1 29/4/1
f 31/1/1 26/1/1 25/1/1
f 31/5/1 25/5/1 30/5/1
f 32/5/1 27/5/1 26/5/1
f 32/1/1 26/1/1 31/1/1
f 33/1/1 28/1/1 27/1/1
f 33/5/1 27/5/1 32/5/1
f 34/1/1 28/1/1 33/1/1
f 35/5/1 30/5/1 29/5/1
f 36/1/1 31/1/1 30/1/1
f 36/5/1 30/5/1 35/5/1
f 37/5/1 32/5/1 31/5/1
f 37/1/1 31/1/1 36/1/1
f 38/1/1 33/1/1 32/1/1
f 38/5/1 32/5/1 37/5/1
f 39/5/1 34/5/1 33/5/1
f 39/1/1 33/1/1 38/1/1
f 40/5/1 34/5/1 39/5/1
f 43/2/1 42/2/1 41/2/1
f 44/2/1 42/2/1 43/2/1
f 45/2/2 46/2/2 47/2/2
f 47/2/2 46/2/2 48/2/2
f 49/5/2 50/5/2 51/5/2
f 51/5/2 50/5/2 52/5/2
f 51/1/2 52/1/2 53/1/2
f 53/1/2 52/1/2 54/1/2
f 53/5/2 54/5/2 57/5/2
f 57/5/2 54/5/2 58/5/2
f 55/5/2 56/5/2 61/5/2
f 56/1/2 57/1/2 62/1/2
f 61/5/2 56/5/2 62/5/2
f 57/5/2 58/5/2 63/5/2
f 62/1/2 57/1/2 63/1/2
f 58/1/2 59/1/2 64/1/2
f 63/5/2 58/5/2 64/5/2
f 59/5/2 60/5/2 65/5/2
f 64/1/2 59/1/2 65/1/2
f 65/5/2 60/5/2 66/5/2
f 61/4/2 62/4/2 67/4/2
f 62/5/2 63/5/2 67/5/2
f 63/1/2 64/1/2 68/1/2
f 67/5/2 63/5/2 68/5/2
f 64/5/2 65/5/2 69/5/2
f 68/1/2 64/1/2 69/1/2
f 65/1/2 66/1/2 70/1/2
f 69/5/2 65/5/2 70/5/2
f 70/1/2 66/1/2 71/1/2
f 61/4/2 67/4/2 72/4/2
f 67/4/2 68/4/2 72/4/2
f 68/5/2 69/5/2 73/5/2
f 72/4/2 68/4/2 73/4/2
f 69/1/2 70/1/2 74/1/2
f 73/5/2 69/5/2 74/5/2
f 70/5/2 71/5/2 75/5/2
f 74/1/2 70/1/2 75/1/2
f 75/5/2 71/5/2 76/5/2
f 61/4/2 72/4/2 77/4/2
f 72/5/2 73/5/2 78/5/2
f 77/4/2 72/4/2 78/4/2
f 73/1/2 74/1/2 79/1/2
f 78/5/2 73/5/2 79/5/2
f 74/5/2 75/5/2 80/5/2
f 79/1/2 74/1/2 80/1/2
f 75/1/2 76/1/2 81/1/2
f 80/5/2 75/5/2 81/5/2
f 81/1/2 76/1/2 82/1/2
f 77/5/2 78/5/2 83/5/2
f 78/1/2 79/1/2 84/1/2
f 83/5/2 78/5/2 84/5/2
f 79/5/2 80/5/2 85/5/2
f 84/1/2 79/1/2 85/1/2
f 80/1/2 81/1/2 86/1/2
f 85/5/2 80/5/2 86/5/2
f 81/5/2 82/5/2 87/5/2
f 86/1/2 81/1/2 87/1/2
f 87/5/2 82/5/2 88/5/2
f 93/5/3 90/5/3 89/5/3
f 94/4/3 91/4/3 90/4/3
f 94/5/3 90/5/3 93/5/3
f 95/4/3 91/4/3 94/4/3
f 96/4/3 91/4/3 95/4/3
f 97/5/3 92/5/3 91/5/3
f 97/4/3 91/4/3 96/4/3
f 98/5/3 92/5/3 97/5/3
f 99/1/3 94/1/3 93/1/3
f 100/4/3 95/4/3 94/4/3
f 100/1/3 94/1/3 99/1/3
f 101/3/3 96/3/3 95/3/3
f 101/4/3 95/4/3 100/4/3
f 102/4/3 97/4/3 96/4/3
f 102/3/3 96/3/3 101/3/3
f 103/1/3 98/1/3 97/1/3
f 103/4/3 97/4/3 102/4/3
f 104/1/3 98/1/3 103/1/3
f 105/5/3 100/5/3 99/5/3
f 106/4/3 101/4/3 100/4/3
f 106/5/3 100/5/3 105/5/3
f 106/4/3 102/4/3 101/4/3
f 107/4/3 102/4/3 106/4/3
f 108/1/3 103/1/3 102/1/3
f 108/4/3 102/4/3 107/4/3
f 109/5/3 104/5/3 103/5/3
f 109/1/3 103/1/3 108/1/3
f 110/5/3 104/5/3 109/5/3
f 111/1/3 106/1/3 105/1/3
f 112/4/3 107/4/3 106/4/3
f 112/1/3 106/1/3 111/1/3
f 113/3/3 108/3/3 107/3/3
f 113/4/3 107/4/3 112/4/3
f 114/4/3 109/4/3 108/4/3
f 114/3/3 108/3/3 113/3/3
f 115/1/3 110/1/3 109/1/3
f 115/4/3 109/4/3 114/4/3
f 116/1/3 110/1/3 115/1/3
f 117/5/3 112/5/3 111/5/3
f 118/4/3 113/4/3 112/4/3
f 118/5/3 112/5/3 117/5/3
f 118/4/3 114/4/3 113/4/3
f 118/4/3 115/4/3 114/4/3
f 119/5/3 116/5/3 115/5/3
f 119/4/3 115/4/3 118/4/3
f 120/5/3 116/5/3 119/5/3
f 125/5/3 122/5/3 121/5/3
f 126/1/3 123/1/3 122/1/3
f 126/5/3 122/5/3 125/5/3
f 127/5/3 124/5/3 123/5/3
f 127/1/3 123/1/3 126/1/3
f 128/5/3 124/5/3 127/5/3
f 129/1/3 126/1/3 125/1/3
f 130/5/3 127/5/3 126/5/3
f 130/1/3 126/1/3 129/1/3
f 131/1/3 128/1/3 127/1/3
f 131/5/3 127/5/3 130/5/3
f 132/1/3 128/1/3 131/1/3
f 135/5/3 130/5/3 129/5/3
f 136/1/3 131/1/3 130/1/3
f 136/5/3 130/5/3 135/5/3
f 137/5/3 132/5/3 131/5/3
f 137/1/3 131/1/3 136/1/3
f 138/5/3 132/5/3 137/5/3
f 139/2/3 134/2/3 133/2/3
f 140/2/3 134/2/3 139/2/3
f 141/1/3 136/1/3 135/1/3
f 142/5/3 137/5/3 136/5/3
f 142/1/3 136/1/3 141/1/3
f 143/1/3 138/1/3 137/1/3
f 143/5/3 137/5/3 142/5/3
f 144/1/3 138/1/3 143/1/3
f 145/5/3 142/5/3 141/5/3
f 146/1/3 143/1/3 142/1/3
f 146/5/3 142/5/3 145/5/3
f 147/5/3 144/5/3 143/5/3
f 147/1/3 143/1/3 146/1/3
f 148/5/3 144/5/3 147/5/3
f 149/5/4 150/5/4 153/5/4
f 150/1/4 151/1/4 154/1/4
f 153/5/4 150/5/4 154/5/4
f 151/5/4 152/5/4 155/5/4
f 154/1/4 151/1/4 155/1/4
f 155/5/4 152/5/4 156/5/4
f 153/1/4 154/1/4 157/1/4
f 154/5/4 155/5/4 158/5/4
f 157/1/4 154/1/4 158/1/4
f 155/1/4 156/1/4 159/1/4
f 158/5/4 155/5/4 159/5/4
f 159/1/4 156/1/4 160/1/4
f 157/5/4 158/5/4 163/5/4
f 158/1/4 159/1/4 164/1/4
f 163/5/4 158/5/4 164/5/4
f 159/5/4 160/5/4 165/5/4
f 164/1/4 159/1/4 165/1/4
f 165/5/4 160/5/4 166/5/4
f 161/2/4 162/2/4 167/2/4
f 167/2/4 162/2/4 168/2/4
f 163/1/4 164/1/4 169/1/4
f 164/5/4 165/5/4 170/5/4
f 169/1/4 164/1/4 170/1/4
f 165/1/4 166/1/4 171/1/4
f 170/5/4 165/5/4 171/5/4
f 171/1/4 166/1/4 172/1/4
f 169/5/4 170/5/4 173/5/4
f 170/1/4 171/1/4 174/1/4
f 173/5/4 170/5/4 174/5/4
f 171/5/4 172/5/4 175/5/4
f 174/1/4 171/1/4 175/1/4
f 175/5/4 172/5/4 176/5/4
f 177/5/4 178/5/4 183/5/4
f 178/1/4 179/1/4 184/1/4
f 183/5/4 178/5/4 184/5/4
f 179/5/4 180/5/4 185/5/4
f 184/1/4 179/1/4 185/1/4
f 180/1/4 181/1/4 186/1/4
f 185/5/4 180/5/4 186/5/4
f 181/5/4 182/5/4 187/5/4
f 186/1/4 181/1/4 187/1/4
f 187/5/4 182/5/4 188/5/4
f 183/1/4 184/1/4 189/1/4
f 184/5/4 185/5/4 190/5/4
f 189/1/4 184/1/4 190/1/4
f 185/1/4 186/1/4 191/1/4
f 190/5/4 185/5/4 191/5/4
f 186/5/4 187/5/4 192/5/4
f 191/1/4 186/1/4 192/1/4
f 187/1/4 188/1/4 193/1/4
f 192/5/4 187/5/4 193/5/4
f 193/1/4 188/1/4 194/1/4
f 189/5/4 190/5/4 195/5/4
f 190/1/4 191/1/4 196/1/4
f 195/5/4 190/5/4 196/5/4
f 191/5/4 192/5/4 197/5/4
f 196/1/4 191/1/4 197/1/4
f 192/1/4 193/1/4 198/1/4
f 197/5/4 192/5/4 198/5/4
f 193/5/4 194/5/4 199/5/4
f 198/1/4 193/1/4 199/1/4
f 199/5/4 194/5/4 200/5/4
f 195/1/4 196/1/4 201/1/4
f 196/5/4 197/5/4 202/5/4
f 201/1/4 196/1/4 202/1/4
f 197/1/4 198/1/4 203/1/4
f 202/5/4 197/5/4 203/5/4
f 198/5/4 199/5/4 204/5/4
f 203/1/4 198/1/4 204/1/4
f 199/1/4 200/1/4 205/1/4
f 204/5/4 199/5/4 205/5/4
f 205/1/4 200/1/4 206/1/4
f 201/5/4 202/5/4 207/5/4
f 202/1/4 203/1/4 208/1/4
f 207/5/4 202/5/4 208/5/4
f 203/5/4 204/5/4 209/5/4
f 208/1/4 203/1/4 209/1/4
f 204/1/4 205/1/4 210/1/4
f 209/5/4 204/5/4 210/5/4
f 205/5/4 206/5/4 211/5/4
f 210/1/4 205/1/4 211/1/4
f 211/5/4 206/5/4 212/5/4
f 219/5/5 214/5/5 213/5/5
f 220/1/5 215/1/5 214/1/5
f 220/5/5 214/5/5 219/5/5
f 221/5/5 216/5/5 215/5/5
f 221/1/5 215/1/5 220/1/5
f 222/1/5 217/1/5 216/1/5
f 222/5/5 216/5/5 221/5/5
f 223/5/5 218/5/5 217/5/5
f 223/1/5 217/1/5 222/1/5
f 224/5/5 218/5/5 223/5/5
f 231/5/5 226/5/5 225/5/5
f 232/1/5 227/1/5 226/1/5
f 232/5/5 226/5/5 231/5/5
f 233/5/5 228/5/5 227/5/5
f 233/1/5 227/1/5 232/1/5
f 234/1/5 229/1/5 228/1/5
f 234/5/5 228/5/5 233/5/5
f 235/5/5 230/5/5 229/5/5
f 235/1/5 229/1/5 234/1/5
f 236/5/5 230/5/5 235/5/5
f 237/1/5 232/1/5 231/1/5
f 238/5/5 233/5/5 232/5/5
f 238/1/5 232/1/5 237/1/5
f 239/1/5 234/1/5 233/1/5
f 239/5/5 233/5/5 238/5/5
f 240/5/5 235/5/5 234/5/5
f 240/1/5 234/1/5 239/1/5
f 241/1/5 236/1/5 235/1/5
f 241/5/5 235/5/5 240/5/5
f 242/1/5 236/1/5 241/1/5
f 249/1/5 244/1/5 243/1/5
f 250/5/5 245/5/5 244/5/5
f 250/1/5 244/1/5 249/1/5
f 251/1/5 246/1/5 245/1/5
f 251/5/5 245/5/5 250/5/5
f 252/5/5 247/5/5 246/5/5
f 252/1/5 246/1/5 251/1/5
f 253/1/5 248/1/5 247/1/5
f 253/5/5 247/5/5 252/5/5
f 254/1/5 248/1/5 253/1/5
f 255/5/5 250/5/5 249/5/5
f 256/1/5 251/1/5 250/1/5
f 256/5/5 250/5/5 255/5/5
f 257/5/5 252/5/5 251/5/5
f 257/1/5 251/1/5 256/1/5
f 258/1/5 253/1/5 252/1/5
f 258/5/5 252/5/5 257/5/5
f 259/5/5 254/5/5 253/5/5
f 259/1/5 253/1/5 258/1/5
f 260/5/5 254/5/5 259/5/5
f 261/5/6 262/5/6 267/5/6
f 262/1/6 263/1/6 268/1/6
f 267/5/6 262/5/6 268/5/6
f 263/5/6 264/5/6 269/5/6
f 268/1/6 263/1/6 269/1/6
f 264/1/6 265/1/6 270/1/6
f 269/5/6 264/5/6 270/5/6
f 265/5/6 266/5/6 271/5/6
f 270/1/6 265/1/6 271/1/6
f 271/5/6 266/5/6 272/5/6
f 267/1/6 268/1/6 273/1/6
f 268/5/6 269/5/6 274/5/6
f 273/1/6 268/1/6 274/1/6
f 269/1/6 270/1/6 275/1/6
f 274/5/6 269/5/6 275/5/6
f 270/5/6 271/5/6 276/5/6
f 275/1/6 270/1/6 276/1/6
f 271/1/6 272/1/6 277/1/6
f 276/5/6 271/5/6 277/5/6
f 277/1/6 272/1/6 278/1/6
f 273/5/6 274/5/6 279/5/6
f 274/1/6 275/1/6 280/1/6
f 279/5/6 274/5/6 280/5/6
f 280/1/6 275/1/6 281/1/6
f 276/1/6 277/1/6 282/1/6
f 277/5/6 278/5/6 283/5/6
f 282/1/6 277/1/6 283/1/6
f 283/5/6 278/5/6 284/5/6
f 279/1/6 280/1/6 285/1/6
f 280/5/6 281/5/6 286/5/6
f 285/1/6 280/1/6 286/1/6
f 281/1/6 282/1/6 287/1/6
f 286/5/6 281/5/6 287/5/6
f 282/5/6 283/5/6 288/5/6
f 287/1/6 282/1/6 288/1/6
f 283/1/6 284/1/6 289/1/6
f 288/5/6 283/5/6 289/5/6
f 289/1/6 284/1/6 290/1/6
f 285/5/6 286/5/6 291/5/6
f 286/1/6 287/1/6 292/1/6
f 291/5/6 286/5/6 292/5/6
f 287/5/6 288/5/6 293/5/6
f 292/1/6 287/1/6 293/1/6
f 288/1/6 289/1/6 294/1/6
f 293/5/6 288/5/6 294/5/6
f 289/5/6 290/5/6 295/5/6
f 294/1/6 289/1/6 295/1/6
f 295/5/6 290/5/6 296/5/6
f 297/2/6 298/2/6 299/2/6
f 299/2/6 298/2/6 300/2/6
