# MagicaVoxel @ Ephtracy

# group
o 

# material
mtllib people.mtl
usemtl palette

# normals
vn -1 0 0
vn 1 0 0
vn 0 0 1
vn 0 0 -1
vn 0 -1 0
vn 0 1 0

# texcoords
vt 0.845703 0.5
vt 0.876953 0.5
vt 0.908203 0.5
vt 0.939453 0.5
vt 0.943359 0.5
vt 0.970703 0.5
vt 0.974609 0.5

# verts
v 0 0.8 -0.3
v 0 0.8 -0.4
v 0 0.9 -0.3
v 0 0.9 -0.4
v 0 1.1 -0.3
v 0 1.1 -0.4
v 0.1 0.5 -0.2
v 0.1 0.5 -0.4
v 0.1 0.6 -0.2
v 0.1 0.6 -0.3
v 0.1 0.6 -0.4
v 0.1 0.8 -0.3
v 0.1 0.8 -0.4
v 0.1 1.1 -0.1
v 0.1 1.1 -0.3
v 0.1 1.1 -0.4
v 0.1 1.1 -0.6
v 0.1 1.2 -0.1
v 0.1 1.2 -0.4
v 0.1 1.3 -0.4
v 0.1 1.3 -0.5
v 0.1 1.4 0
v 0.1 1.4 -0.1
v 0.1 1.4 -0.5
v 0.1 1.4 -0.6
v 0.1 1.5 0
v 0.1 1.5 -0.1
v 0.1 1.6 -0.1
v 0.1 1.6 -0.6
v 0.5 0.5 -0.2
v 0.5 0.5 -0.4
v 0.5 0.6 -0.2
v 0.5 0.6 -0.3
v 0.5 0.6 -0.4
v 0.5 0.8 -0.3
v 0.5 0.8 -0.4
v 0.2 0.5 -0.2
v 0.2 0.5 -0.4
v 0.2 0.6 -0.2
v 0.2 0.6 -0.3
v 0.2 0.6 -0.4
v 0.2 0.8 -0.3
v 0.2 0.8 -0.4
v 0.6 0.5 -0.2
v 0.6 0.5 -0.4
v 0.6 0.6 -0.2
v 0.6 0.6 -0.3
v 0.6 0.6 -0.4
v 0.6 0.8 -0.3
v 0.6 0.8 -0.4
v 0.6 1.1 -0.1
v 0.6 1.1 -0.3
v 0.6 1.1 -0.4
v 0.6 1.1 -0.6
v 0.6 1.2 -0.1
v 0.6 1.2 -0.4
v 0.6 1.3 -0.4
v 0.6 1.3 -0.5
v 0.6 1.4 0
v 0.6 1.4 -0.1
v 0.6 1.4 -0.5
v 0.6 1.4 -0.6
v 0.6 1.5 0
v 0.6 1.5 -0.1
v 0.6 1.6 -0.1
v 0.6 1.6 -0.6
v 0.7 0.8 -0.3
v 0.7 0.8 -0.4
v 0.7 0.9 -0.3
v 0.7 0.9 -0.4
v 0.7 1.1 -0.3
v 0.7 1.1 -0.4
v 0.1 1.4 0
v 0.1 1.5 0
v 0.6 1.4 0
v 0.6 1.5 0
v 0.1 1.1 -0.1
v 0.1 1.2 -0.1
v 0.1 1.4 -0.1
v 0.1 1.5 -0.1
v 0.1 1.6 -0.1
v 0.2 1.3 -0.1
v 0.2 1.4 -0.1
v 0.3 1.3 -0.1
v 0.3 1.4 -0.1
v 0.4 1.3 -0.1
v 0.4 1.4 -0.1
v 0.5 1.3 -0.1
v 0.5 1.4 -0.1
v 0.6 1.1 -0.1
v 0.6 1.2 -0.1
v 0.6 1.4 -0.1
v 0.6 1.5 -0.1
v 0.6 1.6 -0.1
v 0.1 0.5 -0.2
v 0.1 0.6 -0.2
v 0.2 0.5 -0.2
v 0.2 0.6 -0.2
v 0.5 0.5 -0.2
v 0.5 0.6 -0.2
v 0.6 0.5 -0.2
v 0.6 0.6 -0.2
v 0 0.8 -0.3
v 0 0.9 -0.3
v 0 1.1 -0.3
v 0.1 0.6 -0.3
v 0.1 0.8 -0.3
v 0.1 0.9 -0.3
v 0.1 1 -0.3
v 0.1 1.1 -0.3
v 0.2 0.6 -0.3
v 0.2 0.8 -0.3
v 0.2 1 -0.3
v 0.2 1.1 -0.3
v 0.3 1 -0.3
v 0.3 1.1 -0.3
v 0.4 1 -0.3
v 0.4 1.1 -0.3
v 0.5 0.6 -0.3
v 0.5 0.8 -0.3
v 0.5 1 -0.3
v 0.5 1.1 -0.3
v 0.6 0.6 -0.3
v 0.6 0.8 -0.3
v 0.6 0.9 -0.3
v 0.6 1 -0.3
v 0.6 1.1 -0.3
v 0.7 0.8 -0.3
v 0.7 0.9 -0.3
v 0.7 1.1 -0.3
v 0 0.8 -0.4
v 0 0.9 -0.4
v 0 1.1 -0.4
v 0.1 0.5 -0.4
v 0.1 0.6 -0.4
v 0.1 0.8 -0.4
v 0.1 0.9 -0.4
v 0.1 1 -0.4
v 0.1 1.1 -0.4
v 0.2 0.5 -0.4
v 0.2 0.6 -0.4
v 0.2 0.8 -0.4
v 0.2 1 -0.4
v 0.2 1.1 -0.4
v 0.3 1 -0.4
v 0.3 1.1 -0.4
v 0.4 1 -0.4
v 0.4 1.1 -0.4
v 0.5 0.5 -0.4
v 0.5 0.6 -0.4
v 0.5 0.8 -0.4
v 0.5 1 -0.4
v 0.5 1.1 -0.4
v 0.6 0.5 -0.4
v 0.6 0.6 -0.4
v 0.6 0.8 -0.4
v 0.6 0.9 -0.4
v 0.6 1 -0.4
v 0.6 1.1 -0.4
v 0.7 0.8 -0.4
v 0.7 0.9 -0.4
v 0.7 1.1 -0.4
v 0.1 1.1 -0.6
v 0.1 1.4 -0.6
v 0.1 1.6 -0.6
v 0.6 1.1 -0.6
v 0.6 1.4 -0.6
v 0.6 1.6 -0.6
v 0.1 0.5 -0.2
v 0.2 0.5 -0.2
v 0.5 0.5 -0.2
v 0.6 0.5 -0.2
v 0.1 0.5 -0.4
v 0.2 0.5 -0.4
v 0.5 0.5 -0.4
v 0.6 0.5 -0.4
v 0 0.8 -0.3
v 0.1 0.8 -0.3
v 0.2 0.8 -0.3
v 0.5 0.8 -0.3
v 0.6 0.8 -0.3
v 0.7 0.8 -0.3
v 0 0.8 -0.4
v 0.1 0.8 -0.4
v 0.2 0.8 -0.4
v 0.5 0.8 -0.4
v 0.6 0.8 -0.4
v 0.7 0.8 -0.4
v 0.1 1.1 -0.1
v 0.6 1.1 -0.1
v 0.1 1.1 -0.3
v 0.2 1.1 -0.3
v 0.3 1.1 -0.3
v 0.4 1.1 -0.3
v 0.5 1.1 -0.3
v 0.6 1.1 -0.3
v 0.1 1.1 -0.4
v 0.2 1.1 -0.4
v 0.3 1.1 -0.4
v 0.4 1.1 -0.4
v 0.5 1.1 -0.4
v 0.6 1.1 -0.4
v 0.1 1.1 -0.6
v 0.6 1.1 -0.6
v 0.1 1.4 0
v 0.6 1.4 0
v 0.1 1.4 -0.1
v 0.2 1.4 -0.1
v 0.3 1.4 -0.1
v 0.4 1.4 -0.1
v 0.5 1.4 -0.1
v 0.6 1.4 -0.1
v 0.1 0.6 -0.2
v 0.2 0.6 -0.2
v 0.5 0.6 -0.2
v 0.6 0.6 -0.2
v 0.1 0.6 -0.3
v 0.2 0.6 -0.3
v 0.5 0.6 -0.3
v 0.6 0.6 -0.3
v 0 1.1 -0.3
v 0.1 1.1 -0.3
v 0.6 1.1 -0.3
v 0.7 1.1 -0.3
v 0 1.1 -0.4
v 0.1 1.1 -0.4
v 0.6 1.1 -0.4
v 0.7 1.1 -0.4
v 0.1 1.5 0
v 0.6 1.5 0
v 0.1 1.5 -0.1
v 0.6 1.5 -0.1
v 0.1 1.6 -0.1
v 0.6 1.6 -0.1
v 0.2 1.6 -0.2
v 0.3 1.6 -0.2
v 0.4 1.6 -0.2
v 0.5 1.6 -0.2
v 0.2 1.6 -0.3
v 0.3 1.6 -0.3
v 0.4 1.6 -0.3
v 0.5 1.6 -0.3
v 0.2 1.6 -0.4
v 0.3 1.6 -0.4
v 0.4 1.6 -0.4
v 0.5 1.6 -0.4
v 0.2 1.6 -0.5
v 0.3 1.6 -0.5
v 0.4 1.6 -0.5
v 0.5 1.6 -0.5
v 0.1 1.6 -0.6
v 0.6 1.6 -0.6

# faces
f 3/7/1 2/7/1 1/7/1
f 4/7/1 2/7/1 3/7/1
f 5/2/1 4/2/1 3/2/1
f 6/2/1 4/2/1 5/2/1
f 9/3/1 8/3/1 7/3/1
f 10/3/1 8/3/1 9/3/1
f 11/3/1 8/3/1 10/3/1
f 12/4/1 11/4/1 10/4/1
f 13/4/1 11/4/1 12/4/1
f 18/5/1 16/5/1 15/5/1
f 18/5/1 17/5/1 16/5/1
f 18/5/1 15/5/1 14/5/1
f 19/5/1 17/5/1 18/5/1
f 20/7/1 19/7/1 18/7/1
f 20/5/1 17/5/1 19/5/1
f 21/5/1 17/5/1 20/5/1
f 23/7/1 20/7/1 18/7/1
f 23/7/1 21/7/1 20/7/1
f 24/5/1 17/5/1 21/5/1
f 24/7/1 21/7/1 23/7/1
f 25/5/1 17/5/1 24/5/1
f 26/6/1 23/6/1 22/6/1
f 26/6/1 24/6/1 23/6/1
f 26/6/1 25/6/1 24/6/1
f 27/6/1 25/6/1 26/6/1
f 28/6/1 25/6/1 27/6/1
f 29/6/1 25/6/1 28/6/1
f 32/3/1 31/3/1 30/3/1
f 33/3/1 31/3/1 32/3/1
f 34/3/1 31/3/1 33/3/1
f 35/4/1 34/4/1 33/4/1
f 36/4/1 34/4/1 35/4/1
f 37/3/2 38/3/2 39/3/2
f 39/3/2 38/3/2 40/3/2
f 40/3/2 38/3/2 41/3/2
f 40/4/2 41/4/2 42/4/2
f 42/4/2 41/4/2 43/4/2
f 44/3/2 45/3/2 46/3/2
f 46/3/2 45/3/2 47/3/2
f 47/3/2 45/3/2 48/3/2
f 47/4/2 48/4/2 49/4/2
f 49/4/2 48/4/2 50/4/2
f 52/5/2 53/5/2 55/5/2
f 53/5/2 54/5/2 55/5/2
f 51/5/2 52/5/2 55/5/2
f 55/5/2 54/5/2 56/5/2
f 55/7/2 56/7/2 57/7/2
f 56/5/2 54/5/2 57/5/2
f 57/5/2 54/5/2 58/5/2
f 55/7/2 57/7/2 60/7/2
f 57/7/2 58/7/2 60/7/2
f 58/5/2 54/5/2 61/5/2
f 60/7/2 58/7/2 61/7/2
f 61/5/2 54/5/2 62/5/2
f 59/6/2 60/6/2 63/6/2
f 60/6/2 61/6/2 63/6/2
f 61/6/2 62/6/2 63/6/2
f 63/6/2 62/6/2 64/6/2
f 64/6/2 62/6/2 65/6/2
f 65/6/2 62/6/2 66/6/2
f 67/7/2 68/7/2 69/7/2
f 69/7/2 68/7/2 70/7/2
f 69/2/2 70/2/2 71/2/2
f 71/2/2 70/2/2 72/2/2
f 75/6/3 74/6/3 73/6/3
f 76/6/3 74/6/3 75/6/3
f 82/7/3 79/7/3 78/7/3
f 83/7/3 79/7/3 82/7/3
f 84/7/3 82/7/3 78/7/3
f 84/3/3 83/3/3 82/3/3
f 85/3/3 83/3/3 84/3/3
f 86/7/3 84/7/3 78/7/3
f 86/7/3 85/7/3 84/7/3
f 87/7/3 85/7/3 86/7/3
f 88/7/3 86/7/3 78/7/3
f 88/3/3 87/3/3 86/3/3
f 89/3/3 87/3/3 88/3/3
f 90/5/3 78/5/3 77/5/3
f 91/7/3 88/7/3 78/7/3
f 91/5/3 78/5/3 90/5/3
f 91/7/3 89/7/3 88/7/3
f 92/7/3 89/7/3 91/7/3
f 93/6/3 81/6/3 80/6/3
f 94/6/3 81/6/3 93/6/3
f 97/3/3 96/3/3 95/3/3
f 98/3/3 96/3/3 97/3/3
f 101/3/3 100/3/3 99/3/3
f 102/3/3 100/3/3 101/3/3
f 107/7/3 104/7/3 103/7/3
f 108/2/3 105/2/3 104/2/3
f 108/7/3 104/7/3 107/7/3
f 109/2/3 105/2/3 108/2/3
f 110/2/3 105/2/3 109/2/3
f 111/4/3 107/4/3 106/4/3
f 111/4/3 108/4/3 107/4/3
f 111/4/3 109/4/3 108/4/3
f 112/4/3 109/4/3 111/4/3
f 113/2/3 110/2/3 109/2/3
f 113/4/3 109/4/3 112/4/3
f 114/2/3 110/2/3 113/2/3
f 115/4/3 113/4/3 112/4/3
f 115/4/3 114/4/3 113/4/3
f 116/4/3 114/4/3 115/4/3
f 117/4/3 115/4/3 112/4/3
f 117/2/3 116/2/3 115/2/3
f 118/2/3 116/2/3 117/2/3
f 120/4/3 117/4/3 112/4/3
f 120/4/3 118/4/3 117/4/3
f 121/4/3 118/4/3 120/4/3
f 122/4/3 118/4/3 121/4/3
f 123/4/3 120/4/3 119/4/3
f 123/4/3 121/4/3 120/4/3
f 124/4/3 121/4/3 123/4/3
f 125/4/3 121/4/3 124/4/3
f 126/2/3 122/2/3 121/2/3
f 126/4/3 121/4/3 125/4/3
f 127/2/3 122/2/3 126/2/3
f 128/7/3 125/7/3 124/7/3
f 129/2/3 127/2/3 126/2/3
f 129/7/3 125/7/3 128/7/3
f 129/2/3 126/2/3 125/2/3
f 130/2/3 127/2/3 129/2/3
f 131/7/4 132/7/4 136/7/4
f 132/2/4 133/2/4 137/2/4
f 136/7/4 132/7/4 137/7/4
f 137/2/4 133/2/4 138/2/4
f 138/2/4 133/2/4 139/2/4
f 134/3/4 135/3/4 140/3/4
f 135/4/4 136/4/4 141/4/4
f 140/3/4 135/3/4 141/3/4
f 136/4/4 137/4/4 141/4/4
f 137/4/4 138/4/4 141/4/4
f 141/4/4 138/4/4 142/4/4
f 138/2/4 139/2/4 143/2/4
f 142/4/4 138/4/4 143/4/4
f 143/2/4 139/2/4 144/2/4
f 143/4/4 144/4/4 145/4/4
f 142/4/4 143/4/4 145/4/4
f 145/4/4 144/4/4 146/4/4
f 142/4/4 145/4/4 147/4/4
f 145/2/4 146/2/4 147/2/4
f 147/2/4 146/2/4 148/2/4
f 142/4/4 147/4/4 151/4/4
f 147/4/4 148/4/4 151/4/4
f 151/4/4 148/4/4 152/4/4
f 152/4/4 148/4/4 153/4/4
f 149/3/4 150/3/4 154/3/4
f 150/4/4 151/4/4 155/4/4
f 154/3/4 150/3/4 155/3/4
f 151/4/4 152/4/4 155/4/4
f 155/4/4 152/4/4 156/4/4
f 156/4/4 152/4/4 157/4/4
f 152/2/4 153/2/4 158/2/4
f 157/4/4 152/4/4 158/4/4
f 158/2/4 153/2/4 159/2/4
f 156/7/4 157/7/4 160/7/4
f 158/2/4 159/2/4 161/2/4
f 160/7/4 157/7/4 161/7/4
f 157/2/4 158/2/4 161/2/4
f 161/2/4 159/2/4 162/2/4
f 163/5/4 164/5/4 166/5/4
f 164/6/4 165/6/4 167/6/4
f 166/5/4 164/5/4 167/5/4
f 167/6/4 165/6/4 168/6/4
f 173/3/5 170/3/5 169/3/5
f 174/3/5 170/3/5 173/3/5
f 175/3/5 172/3/5 171/3/5
f 176/3/5 172/3/5 175/3/5
f 183/7/5 178/7/5 177/7/5
f 184/7/5 178/7/5 183/7/5
f 185/4/5 180/4/5 179/4/5
f 186/4/5 180/4/5 185/4/5
f 187/7/5 182/7/5 181/7/5
f 188/7/5 182/7/5 187/7/5
f 191/5/5 190/5/5 189/5/5
f 192/5/5 190/5/5 191/5/5
f 193/5/5 190/5/5 192/5/5
f 194/5/5 190/5/5 193/5/5
f 195/5/5 190/5/5 194/5/5
f 196/5/5 190/5/5 195/5/5
f 203/5/5 198/5/5 197/5/5
f 203/5/5 202/5/5 201/5/5
f 203/5/5 201/5/5 200/5/5
f 203/5/5 200/5/5 199/5/5
f 203/5/5 199/5/5 198/5/5
f 204/5/5 202/5/5 203/5/5
f 207/6/5 206/6/5 205/6/5
f 208/6/5 206/6/5 207/6/5
f 209/6/5 206/6/5 208/6/5
f 210/6/5 206/6/5 209/6/5
f 211/6/5 206/6/5 210/6/5
f 212/6/5 206/6/5 211/6/5
f 213/3/6 214/3/6 217/3/6
f 217/3/6 214/3/6 218/3/6
f 215/3/6 216/3/6 219/3/6
f 219/3/6 216/3/6 220/3/6
f 221/2/6 222/2/6 225/2/6
f 225/2/6 222/2/6 226/2/6
f 223/2/6 224/2/6 227/2/6
f 227/2/6 224/2/6 228/2/6
f 229/6/6 230/6/6 231/6/6
f 231/6/6 230/6/6 232/6/6
f 233/6/6 234/6/6 235/6/6
f 235/6/6 234/6/6 236/6/6
f 236/6/6 234/6/6 237/6/6
f 237/6/6 234/6/6 238/6/6
f 233/6/6 235/6/6 239/6/6
f 235/1/6 236/1/6 239/1/6
f 236/6/6 237/6/6 240/6/6
f 239/1/6 236/1/6 240/1/6
f 237/1/6 238/1/6 241/1/6
f 240/6/6 237/6/6 241/6/6
f 238/6/6 234/6/6 242/6/6
f 241/1/6 238/1/6 242/1/6
f 239/6/6 240/6/6 243/6/6
f 233/6/6 239/6/6 243/6/6
f 240/1/6 241/1/6 244/1/6
f 243/6/6 240/6/6 244/6/6
f 241/6/6 242/6/6 245/6/6
f 244/1/6 241/1/6 245/1/6
f 242/6/6 234/6/6 246/6/6
f 245/6/6 242/6/6 246/6/6
f 233/6/6 243/6/6 247/6/6
f 243/1/6 244/1/6 247/1/6
f 244/6/6 245/6/6 248/6/6
f 247/1/6 244/1/6 248/1/6
f 245/1/6 246/1/6 249/1/6
f 248/6/6 245/6/6 249/6/6
f 246/6/6 234/6/6 250/6/6
f 249/1/6 246/1/6 250/1/6
f 248/6/6 249/6/6 251/6/6
f 233/6/6 247/6/6 251/6/6
f 249/6/6 250/6/6 251/6/6
f 247/6/6 248/6/6 251/6/6
f 250/6/6 234/6/6 252/6/6
f 251/6/6 250/6/6 252/6/6
