# MagicaVoxel @ Ephtracy

# group
o 

# material
mtllib people_3-3.mtl
usemtl palette

# normals
vn -1 0 0
vn 1 0 0
vn 0 0 1
vn 0 0 -1
vn 0 -1 0
vn 0 1 0

# texcoords
vt 0.939453 0.5
vt 0.951172 0.5
vt 0.974609 0.5
vt 0.978516 0.5

# verts
v 0.3 0.3 0.3
v 0.3 0.3 0
v 0.3 0.3 -0.1
v 0.3 0.4 0.3
v 0.3 0.4 0
v 0.3 0.4 -0.1
v 0.3 0.5 0
v 0.3 0.5 -0.1
v 0.3 0.6 0
v 0.3 0.6 -0.1
v 0.4 0.3 0.3
v 0.4 0.3 0
v 0.4 0.3 -0.1
v 0.4 0.4 0.3
v 0.4 0.4 0
v 0.4 0.4 -0.1
v 0.4 0.5 0
v 0.4 0.5 -0.1
v 0.4 0.6 0
v 0.4 0.6 -0.1
v 0.3 0.3 0.3
v 0.3 0.4 0.3
v 0.4 0.3 0.3
v 0.4 0.4 0.3
v 0.3 0.4 0
v 0.3 0.5 0
v 0.3 0.6 0
v 0.4 0.4 0
v 0.4 0.5 0
v 0.4 0.6 0
v 0.3 0.3 -0.1
v 0.3 0.4 -0.1
v 0.3 0.5 -0.1
v 0.3 0.6 -0.1
v 0.4 0.3 -0.1
v 0.4 0.4 -0.1
v 0.4 0.5 -0.1
v 0.4 0.6 -0.1
v 0.3 0.3 0.3
v 0.4 0.3 0.3
v 0.3 0.3 0
v 0.4 0.3 0
v 0.3 0.3 -0.1
v 0.4 0.3 -0.1
v 0.3 0.4 0.3
v 0.4 0.4 0.3
v 0.3 0.4 0
v 0.4 0.4 0
v 0.3 0.6 0
v 0.4 0.6 0
v 0.3 0.6 -0.1
v 0.4 0.6 -0.1

# faces
f 4/2/1 2/2/1 1/2/1
f 5/3/1 3/3/1 2/3/1
f 5/2/1 2/2/1 4/2/1
f 6/3/1 3/3/1 5/3/1
f 7/4/1 6/4/1 5/4/1
f 8/4/1 6/4/1 7/4/1
f 9/1/1 8/1/1 7/1/1
f 10/1/1 8/1/1 9/1/1
f 11/2/2 12/2/2 14/2/2
f 12/3/2 13/3/2 15/3/2
f 14/2/2 12/2/2 15/2/2
f 15/3/2 13/3/2 16/3/2
f 15/4/2 16/4/2 17/4/2
f 17/4/2 16/4/2 18/4/2
f 17/1/2 18/1/2 19/1/2
f 19/1/2 18/1/2 20/1/2
f 23/2/3 22/2/3 21/2/3
f 24/2/3 22/2/3 23/2/3
f 28/4/3 26/4/3 25/4/3
f 29/1/3 27/1/3 26/1/3
f 29/4/3 26/4/3 28/4/3
f 30/1/3 27/1/3 29/1/3
f 31/3/4 32/3/4 35/3/4
f 32/4/4 33/4/4 36/4/4
f 35/3/4 32/3/4 36/3/4
f 33/1/4 34/1/4 37/1/4
f 36/4/4 33/4/4 37/4/4
f 37/1/4 34/1/4 38/1/4
f 41/2/5 40/2/5 39/2/5
f 42/2/5 40/2/5 41/2/5
f 43/3/5 42/3/5 41/3/5
f 44/3/5 42/3/5 43/3/5
f 45/2/6 46/2/6 47/2/6
f 47/2/6 46/2/6 48/2/6
f 49/1/6 50/1/6 51/1/6
f 51/1/6 50/1/6 52/1/6
