# MagicaVoxel @ Ephtracy

# group
o 

# material
mtllib rock_little.mtl
usemtl palette

# normals
vn -1 0 0
vn 1 0 0
vn 0 0 1
vn 0 0 -1
vn 0 -1 0
vn 0 1 0

# texcoords
vt 0.970703 0.5
vt 0.974609 0.5
vt 0.978516 0.5

# verts
v 0 0.2 -0.2
v 0 0.2 -0.6
v 0 0.3 -0.2
v 0 0.3 -0.5
v 0 0.3 -0.6
v 0 0.4 -0.2
v 0 0.4 -0.5
v 0 0.4 -0.6
v 0.1 0.2 0
v 0.1 0.2 -0.2
v 0.1 0.3 0
v 0.1 0.3 -0.2
v 0.1 0.4 0
v 0.1 0.4 -0.1
v 0.1 0.4 -0.2
v 0.1 0.4 -0.4
v 0.1 0.5 -0.1
v 0.1 0.5 -0.2
v 0.1 0.6 0
v 0.1 0.6 -0.2
v 0.1 0.6 -0.4
v 0.3 0.2 -0.4
v 0.3 0.2 -0.6
v 0.3 0.3 -0.4
v 0.3 0.3 -0.6
v 0.3 0.4 -0.4
v 0.3 0.4 -0.6
v 0.5 0.2 0
v 0.5 0.2 -0.4
v 0.5 0.3 0
v 0.5 0.3 -0.4
v 0.5 0.5 -0.3
v 0.5 0.5 -0.4
v 0.5 0.6 0
v 0.5 0.6 -0.3
v 0.5 0.6 -0.4
v 0.1 0.2 0
v 0.1 0.3 0
v 0.1 0.4 0
v 0.1 0.6 0
v 0.2 0.4 0
v 0.2 0.5 0
v 0.3 0.5 0
v 0.3 0.6 0
v 0.5 0.2 0
v 0.5 0.3 0
v 0.5 0.6 0
v 0 0.2 -0.2
v 0 0.3 -0.2
v 0 0.4 -0.2
v 0.1 0.2 -0.2
v 0.1 0.3 -0.2
v 0.1 0.4 -0.2
v 0.1 0.4 -0.4
v 0.1 0.6 -0.4
v 0.3 0.2 -0.4
v 0.3 0.3 -0.4
v 0.3 0.4 -0.4
v 0.3 0.5 -0.4
v 0.3 0.6 -0.4
v 0.5 0.2 -0.4
v 0.5 0.3 -0.4
v 0.5 0.5 -0.4
v 0.5 0.6 -0.4
v 0 0.2 -0.6
v 0 0.3 -0.6
v 0 0.4 -0.6
v 0.1 0.3 -0.6
v 0.1 0.4 -0.6
v 0.3 0.2 -0.6
v 0.3 0.3 -0.6
v 0.3 0.4 -0.6
v 0.1 0.2 0
v 0.5 0.2 0
v 0 0.2 -0.2
v 0.1 0.2 -0.2
v 0.3 0.2 -0.4
v 0.5 0.2 -0.4
v 0 0.2 -0.6
v 0.3 0.2 -0.6
v 0 0.4 -0.2
v 0.1 0.4 -0.2
v 0.1 0.4 -0.4
v 0.3 0.4 -0.4
v 0 0.4 -0.5
v 0.1 0.4 -0.5
v 0 0.4 -0.6
v 0.1 0.4 -0.6
v 0.3 0.4 -0.6
v 0.1 0.6 0
v 0.3 0.6 0
v 0.5 0.6 0
v 0.2 0.6 -0.1
v 0.3 0.6 -0.1
v 0.1 0.6 -0.2
v 0.2 0.6 -0.2
v 0.3 0.6 -0.3
v 0.5 0.6 -0.3
v 0.1 0.6 -0.4
v 0.3 0.6 -0.4
v 0.5 0.6 -0.4

# faces
f 3/3/1 2/3/1 1/3/1
f 4/3/1 2/3/1 3/3/1
f 5/3/1 2/3/1 4/3/1
f 6/1/1 4/1/1 3/1/1
f 7/2/1 5/2/1 4/2/1
f 7/1/1 4/1/1 6/1/1
f 8/2/1 5/2/1 7/2/1
f 11/3/1 10/3/1 9/3/1
f 12/3/1 10/3/1 11/3/1
f 13/1/1 12/1/1 11/1/1
f 14/1/1 12/1/1 13/1/1
f 15/1/1 12/1/1 14/1/1
f 17/1/1 15/1/1 14/1/1
f 17/1/1 16/1/1 15/1/1
f 17/2/1 14/2/1 13/2/1
f 18/1/1 16/1/1 17/1/1
f 19/2/1 17/2/1 13/2/1
f 19/2/1 18/2/1 17/2/1
f 20/1/1 16/1/1 18/1/1
f 20/2/1 18/2/1 19/2/1
f 21/1/1 16/1/1 20/1/1
f 22/3/2 23/3/2 24/3/2
f 24/3/2 23/3/2 25/3/2
f 24/1/2 25/1/2 26/1/2
f 26/1/2 25/1/2 27/1/2
f 28/3/2 29/3/2 30/3/2
f 30/3/2 29/3/2 31/3/2
f 30/1/2 31/1/2 32/1/2
f 32/1/2 31/1/2 33/1/2
f 30/1/2 32/1/2 34/1/2
f 32/2/2 33/2/2 35/2/2
f 34/1/2 32/1/2 35/1/2
f 35/2/2 33/2/2 36/2/2
f 41/1/3 39/1/3 38/1/3
f 41/2/3 40/2/3 39/2/3
f 42/2/3 40/2/3 41/2/3
f 43/1/3 42/1/3 41/1/3
f 43/2/3 40/2/3 42/2/3
f 44/2/3 40/2/3 43/2/3
f 45/3/3 38/3/3 37/3/3
f 46/1/3 41/1/3 38/1/3
f 46/3/3 38/3/3 45/3/3
f 46/1/3 43/1/3 41/1/3
f 46/1/3 44/1/3 43/1/3
f 47/1/3 44/1/3 46/1/3
f 51/3/3 49/3/3 48/3/3
f 52/1/3 50/1/3 49/1/3
f 52/3/3 49/3/3 51/3/3
f 53/1/3 50/1/3 52/1/3
f 54/1/4 55/1/4 58/1/4
f 58/1/4 55/1/4 59/1/4
f 59/1/4 55/1/4 60/1/4
f 56/3/4 57/3/4 61/3/4
f 57/1/4 58/1/4 62/1/4
f 61/3/4 57/3/4 62/3/4
f 58/1/4 59/1/4 62/1/4
f 59/2/4 60/2/4 63/2/4
f 62/1/4 59/1/4 63/1/4
f 63/2/4 60/2/4 64/2/4
f 65/3/4 66/3/4 68/3/4
f 66/2/4 67/2/4 68/2/4
f 68/2/4 67/2/4 69/2/4
f 65/3/4 68/3/4 70/3/4
f 68/1/4 69/1/4 71/1/4
f 70/3/4 68/3/4 71/3/4
f 71/1/4 69/1/4 72/1/4
f 76/3/5 74/3/5 73/3/5
f 77/3/5 74/3/5 76/3/5
f 77/3/5 76/3/5 75/3/5
f 78/3/5 74/3/5 77/3/5
f 79/3/5 77/3/5 75/3/5
f 80/3/5 77/3/5 79/3/5
f 81/1/6 82/1/6 83/1/6
f 81/1/6 83/1/6 85/1/6
f 83/1/6 84/1/6 85/1/6
f 85/1/6 84/1/6 86/1/6
f 85/2/6 86/2/6 87/2/6
f 86/1/6 84/1/6 88/1/6
f 87/2/6 86/2/6 88/2/6
f 88/1/6 84/1/6 89/1/6
f 90/2/6 91/2/6 93/2/6
f 91/1/6 92/1/6 94/1/6
f 93/2/6 91/2/6 94/2/6
f 90/2/6 93/2/6 95/2/6
f 93/1/6 94/1/6 96/1/6
f 95/2/6 93/2/6 96/2/6
f 94/1/6 92/1/6 97/1/6
f 96/1/6 94/1/6 97/1/6
f 95/1/6 96/1/6 97/1/6
f 97/1/6 92/1/6 98/1/6
f 95/1/6 97/1/6 99/1/6
f 97/2/6 98/2/6 100/2/6
f 99/1/6 97/1/6 100/1/6
f 100/2/6 98/2/6 101/2/6
