# MagicaVoxel @ Ephtracy

# group
o 

# material
mtllib tools.mtl
usemtl palette

# normals
vn -1 0 0
vn 1 0 0
vn 0 0 1
vn 0 0 -1
vn 0 -1 0
vn 0 1 0

# texcoords
vt 0.939453 0.5
vt 0.943359 0.5
vt 0.970703 0.5
vt 0.974609 0.5
vt 0.978516 0.5

# verts
v -0.3 0 0.5
v -0.3 0 -0.6
v -0.3 0.1 0.3
v -0.3 0.1 -0.4
v -0.3 0.2 0.4
v -0.3 0.2 0.3
v -0.3 0.2 -0.4
v -0.3 0.2 -0.5
v -0.3 0.3 0.5
v -0.3 0.3 0.4
v -0.3 0.3 -0.5
v -0.3 0.3 -0.6
v -0.3 0.4 0.3
v -0.3 0.4 0.2
v -0.3 0.4 -0.3
v -0.3 0.4 -0.4
v -0.3 0.5 0.5
v -0.3 0.5 0.3
v -0.3 0.5 0.2
v -0.3 0.5 -0.3
v -0.3 0.5 -0.4
v -0.3 0.5 -0.6
v -0.2 0.5 0.5
v -0.2 0.5 0.3
v -0.2 0.5 0.2
v -0.2 0.5 -0.3
v -0.2 0.5 -0.4
v -0.2 0.5 -0.6
v -0.2 0.6 0.5
v -0.2 0.6 -0.6
v -0.1 0.6 0.5
v -0.1 0.6 -0.6
v -0.1 0.7 0.5
v -0.1 0.7 -0.6
v 0 0.7 0.4
v 0 0.7 0.3
v 0 0.7 -0.4
v 0 0.7 -0.5
v 0 0.8 0.3
v 0 0.8 -0.4
v 0 0.9 0.4
v 0 0.9 -0.5
v 0.1 0.7 0.4
v 0.1 0.7 0.3
v 0.1 0.7 -0.4
v 0.1 0.7 -0.5
v 0.1 0.8 0.3
v 0.1 0.8 -0.4
v 0.1 0.9 0.4
v 0.1 0.9 -0.5
v 0.2 0.6 0.5
v 0.2 0.6 -0.6
v 0.2 0.7 0.5
v 0.2 0.7 -0.6
v 0.3 0.5 0.5
v 0.3 0.5 0.1
v 0.3 0.5 -0.2
v 0.3 0.5 -0.6
v 0.3 0.6 0.5
v 0.3 0.6 -0.6
v 0.4 0 0.5
v 0.4 0 -0.6
v 0.4 0.1 0.3
v 0.4 0.1 -0.4
v 0.4 0.2 0.4
v 0.4 0.2 0.3
v 0.4 0.2 -0.4
v 0.4 0.2 -0.5
v 0.4 0.3 0.5
v 0.4 0.3 0.4
v 0.4 0.3 -0.5
v 0.4 0.3 -0.6
v 0.4 0.4 0.1
v 0.4 0.4 -0.2
v 0.4 0.5 0.5
v 0.4 0.5 0.1
v 0.4 0.5 -0.2
v 0.4 0.5 -0.6
v -0.3 0 0.5
v -0.3 0.3 0.5
v -0.3 0.5 0.5
v -0.2 0.2 0.5
v -0.2 0.3 0.5
v -0.2 0.5 0.5
v -0.2 0.6 0.5
v -0.1 0.1 0.5
v -0.1 0.2 0.5
v -0.1 0.6 0.5
v -0.1 0.7 0.5
v 0.2 0.1 0.5
v 0.2 0.2 0.5
v 0.2 0.6 0.5
v 0.2 0.7 0.5
v 0.3 0.2 0.5
v 0.3 0.3 0.5
v 0.3 0.5 0.5
v 0.3 0.6 0.5
v 0.4 0 0.5
v 0.4 0.3 0.5
v 0.4 0.5 0.5
v 0 0.7 0.4
v 0 0.9 0.4
v 0.1 0.7 0.4
v 0.1 0.9 0.4
v 0 0.7 -0.4
v 0 0.8 -0.4
v 0.1 0.7 -0.4
v 0.1 0.8 -0.4
v 0 0.7 0.3
v 0 0.8 0.3
v 0.1 0.7 0.3
v 0.1 0.8 0.3
v 0 0.7 -0.5
v 0 0.9 -0.5
v 0.1 0.7 -0.5
v 0.1 0.9 -0.5
v -0.3 0 -0.6
v -0.3 0.3 -0.6
v -0.3 0.5 -0.6
v -0.2 0.2 -0.6
v -0.2 0.3 -0.6
v -0.2 0.5 -0.6
v -0.2 0.6 -0.6
v -0.1 0.1 -0.6
v -0.1 0.2 -0.6
v -0.1 0.6 -0.6
v -0.1 0.7 -0.6
v 0.2 0.1 -0.6
v 0.2 0.2 -0.6
v 0.2 0.6 -0.6
v 0.2 0.7 -0.6
v 0.3 0.2 -0.6
v 0.3 0.3 -0.6
v 0.3 0.5 -0.6
v 0.3 0.6 -0.6
v 0.4 0 -0.6
v 0.4 0.3 -0.6
v 0.4 0.5 -0.6
v -0.3 0 0.5
v 0.4 0 0.5
v -0.3 0 -0.6
v 0.4 0 -0.6
v 0 0.8 0.3
v 0.1 0.8 0.3
v 0 0.8 -0.4
v 0.1 0.8 -0.4
v -0.3 0.5 0.5
v -0.2 0.5 0.5
v 0.3 0.5 0.5
v 0.4 0.5 0.5
v -0.3 0.5 0.3
v -0.2 0.5 0.3
v -0.3 0.5 0.2
v -0.2 0.5 0.2
v 0.3 0.5 0.1
v 0.4 0.5 0.1
v 0.3 0.5 -0.2
v 0.4 0.5 -0.2
v -0.3 0.5 -0.3
v -0.2 0.5 -0.3
v -0.3 0.5 -0.4
v -0.2 0.5 -0.4
v -0.3 0.5 -0.6
v -0.2 0.5 -0.6
v 0.3 0.5 -0.6
v 0.4 0.5 -0.6
v -0.2 0.6 0.5
v -0.1 0.6 0.5
v 0.2 0.6 0.5
v 0.3 0.6 0.5
v -0.2 0.6 -0.6
v -0.1 0.6 -0.6
v 0.2 0.6 -0.6
v 0.3 0.6 -0.6
v -0.1 0.7 0.5
v 0.2 0.7 0.5
v 0 0.7 0.4
v 0.1 0.7 0.4
v 0 0.7 0.3
v 0.1 0.7 0.3
v 0 0.7 -0.4
v 0.1 0.7 -0.4
v 0 0.7 -0.5
v 0.1 0.7 -0.5
v -0.1 0.7 -0.6
v 0.2 0.7 -0.6
v 0 0.9 0.4
v 0.1 0.9 0.4
v 0 0.9 -0.5
v 0.1 0.9 -0.5

# faces
f 3/1/1 2/1/1 1/1/1
f 4/1/1 2/1/1 3/1/1
f 5/1/1 3/1/1 1/1/1
f 6/3/1 4/3/1 3/3/1
f 6/1/1 3/1/1 5/1/1
f 7/1/1 2/1/1 4/1/1
f 7/3/1 4/3/1 6/3/1
f 8/1/1 2/1/1 7/1/1
f 9/1/1 5/1/1 1/1/1
f 10/3/1 6/3/1 5/3/1
f 10/1/1 5/1/1 9/1/1
f 10/3/1 7/3/1 6/3/1
f 10/3/1 8/3/1 7/3/1
f 11/1/1 2/1/1 8/1/1
f 11/3/1 8/3/1 10/3/1
f 12/1/1 2/1/1 11/1/1
f 13/3/1 10/3/1 9/3/1
f 13/3/1 11/3/1 10/3/1
f 13/3/1 12/3/1 11/3/1
f 14/3/1 12/3/1 13/3/1
f 15/3/1 12/3/1 14/3/1
f 16/3/1 12/3/1 15/3/1
f 17/3/1 13/3/1 9/3/1
f 18/4/1 14/4/1 13/4/1
f 18/3/1 13/3/1 17/3/1
f 19/3/1 15/3/1 14/3/1
f 19/4/1 14/4/1 18/4/1
f 20/4/1 16/4/1 15/4/1
f 20/3/1 15/3/1 19/3/1
f 21/3/1 12/3/1 16/3/1
f 21/4/1 16/4/1 20/4/1
f 22/3/1 12/3/1 21/3/1
f 29/3/1 24/3/1 23/3/1
f 29/3/1 28/3/1 27/3/1
f 29/3/1 27/3/1 26/3/1
f 29/3/1 26/3/1 25/3/1
f 29/3/1 25/3/1 24/3/1
f 30/3/1 28/3/1 29/3/1
f 33/3/1 32/3/1 31/3/1
f 34/3/1 32/3/1 33/3/1
f 39/5/1 36/5/1 35/5/1
f 40/5/1 38/5/1 37/5/1
f 41/5/1 39/5/1 35/5/1
f 41/5/1 40/5/1 39/5/1
f 42/5/1 38/5/1 40/5/1
f 42/5/1 40/5/1 41/5/1
f 43/5/2 44/5/2 47/5/2
f 45/5/2 46/5/2 48/5/2
f 43/5/2 47/5/2 49/5/2
f 47/5/2 48/5/2 49/5/2
f 48/5/2 46/5/2 50/5/2
f 49/5/2 48/5/2 50/5/2
f 51/3/2 52/3/2 53/3/2
f 53/3/2 52/3/2 54/3/2
f 55/3/2 56/3/2 59/3/2
f 57/3/2 58/3/2 59/3/2
f 56/3/2 57/3/2 59/3/2
f 59/3/2 58/3/2 60/3/2
f 61/1/2 62/1/2 63/1/2
f 63/1/2 62/1/2 64/1/2
f 61/1/2 63/1/2 65/1/2
f 63/3/2 64/3/2 66/3/2
f 65/1/2 63/1/2 66/1/2
f 64/1/2 62/1/2 67/1/2
f 66/3/2 64/3/2 67/3/2
f 67/1/2 62/1/2 68/1/2
f 61/1/2 65/1/2 69/1/2
f 65/3/2 66/3/2 70/3/2
f 69/1/2 65/1/2 70/1/2
f 66/3/2 67/3/2 70/3/2
f 67/3/2 68/3/2 70/3/2
f 68/1/2 62/1/2 71/1/2
f 70/3/2 68/3/2 71/3/2
f 71/1/2 62/1/2 72/1/2
f 69/3/2 70/3/2 73/3/2
f 70/3/2 71/3/2 73/3/2
f 71/3/2 72/3/2 73/3/2
f 73/3/2 72/3/2 74/3/2
f 69/3/2 73/3/2 75/3/2
f 73/2/2 74/2/2 76/2/2
f 75/3/2 73/3/2 76/3/2
f 74/3/2 72/3/2 77/3/2
f 76/2/2 74/2/2 77/2/2
f 77/3/2 72/3/2 78/3/2
f 82/1/3 80/1/3 79/1/3
f 83/3/3 81/3/3 80/3/3
f 83/1/3 80/1/3 82/1/3
f 84/3/3 81/3/3 83/3/3
f 86/1/3 82/1/3 79/1/3
f 87/3/3 85/3/3 84/3/3
f 87/1/3 82/1/3 86/1/3
f 87/3/3 83/3/3 82/3/3
f 87/3/3 84/3/3 83/3/3
f 88/3/3 85/3/3 87/3/3
f 90/1/3 86/1/3 79/1/3
f 90/3/3 89/3/3 88/3/3
f 90/3/3 88/3/3 87/3/3
f 90/3/3 87/3/3 86/3/3
f 91/3/3 89/3/3 90/3/3
f 92/3/3 89/3/3 91/3/3
f 93/3/3 89/3/3 92/3/3
f 94/1/3 91/1/3 90/1/3
f 94/3/3 92/3/3 91/3/3
f 95/3/3 92/3/3 94/3/3
f 96/3/3 92/3/3 95/3/3
f 97/3/3 92/3/3 96/3/3
f 98/1/3 90/1/3 79/1/3
f 98/1/3 94/1/3 90/1/3
f 98/1/3 95/1/3 94/1/3
f 99/3/3 96/3/3 95/3/3
f 99/1/3 95/1/3 98/1/3
f 100/3/3 96/3/3 99/3/3
f 103/5/3 102/5/3 101/5/3
f 104/5/3 102/5/3 103/5/3
f 107/5/3 106/5/3 105/5/3
f 108/5/3 106/5/3 107/5/3
f 109/5/4 110/5/4 111/5/4
f 111/5/4 110/5/4 112/5/4
f 113/5/4 114/5/4 115/5/4
f 115/5/4 114/5/4 116/5/4
f 117/1/4 118/1/4 120/1/4
f 118/3/4 119/3/4 121/3/4
f 120/1/4 118/1/4 121/1/4
f 121/3/4 119/3/4 122/3/4
f 117/1/4 120/1/4 124/1/4
f 122/3/4 123/3/4 125/3/4
f 124/1/4 120/1/4 125/1/4
f 120/3/4 121/3/4 125/3/4
f 121/3/4 122/3/4 125/3/4
f 125/3/4 123/3/4 126/3/4
f 117/1/4 124/1/4 128/1/4
f 126/3/4 127/3/4 128/3/4
f 125/3/4 126/3/4 128/3/4
f 124/3/4 125/3/4 128/3/4
f 128/3/4 127/3/4 129/3/4
f 129/3/4 127/3/4 130/3/4
f 130/3/4 127/3/4 131/3/4
f 128/1/4 129/1/4 132/1/4
f 129/3/4 130/3/4 132/3/4
f 132/3/4 130/3/4 133/3/4
f 133/3/4 130/3/4 134/3/4
f 134/3/4 130/3/4 135/3/4
f 117/1/4 128/1/4 136/1/4
f 128/1/4 132/1/4 136/1/4
f 132/1/4 133/1/4 136/1/4
f 133/3/4 134/3/4 137/3/4
f 136/1/4 133/1/4 137/1/4
f 137/3/4 134/3/4 138/3/4
f 141/1/5 140/1/5 139/1/5
f 142/1/5 140/1/5 141/1/5
f 145/5/5 144/5/5 143/5/5
f 146/5/5 144/5/5 145/5/5
f 147/3/6 148/3/6 151/3/6
f 151/3/6 148/3/6 152/3/6
f 151/4/6 152/4/6 153/4/6
f 153/4/6 152/4/6 154/4/6
f 149/3/6 150/3/6 155/3/6
f 155/3/6 150/3/6 156/3/6
f 155/2/6 156/2/6 157/2/6
f 157/2/6 156/2/6 158/2/6
f 153/3/6 154/3/6 159/3/6
f 159/3/6 154/3/6 160/3/6
f 159/4/6 160/4/6 161/4/6
f 161/4/6 160/4/6 162/4/6
f 161/3/6 162/3/6 163/3/6
f 163/3/6 162/3/6 164/3/6
f 157/3/6 158/3/6 165/3/6
f 165/3/6 158/3/6 166/3/6
f 167/3/6 168/3/6 171/3/6
f 171/3/6 168/3/6 172/3/6
f 169/3/6 170/3/6 173/3/6
f 173/3/6 170/3/6 174/3/6
f 175/3/6 176/3/6 177/3/6
f 177/3/6 176/3/6 178/3/6
f 175/3/6 177/3/6 179/3/6
f 178/3/6 176/3/6 180/3/6
f 175/3/6 179/3/6 181/3/6
f 179/3/6 180/3/6 181/3/6
f 180/3/6 176/3/6 182/3/6
f 181/3/6 180/3/6 182/3/6
f 175/3/6 181/3/6 183/3/6
f 182/3/6 176/3/6 184/3/6
f 175/3/6 183/3/6 185/3/6
f 183/3/6 184/3/6 185/3/6
f 184/3/6 176/3/6 186/3/6
f 185/3/6 184/3/6 186/3/6
f 187/5/6 188/5/6 189/5/6
f 189/5/6 188/5/6 190/5/6
